<svg width="567" height="537" viewBox="0 0 567 537" xmlns="http://www.w3.org/2000/svg">
    <g transform="translate(.95 -.001)" fill="#FFEBEB" fill-rule="nonzero">
        <path d="M187.9 5.155a2.577 2.577 0 0 0 2.578-2.577 2.552 2.552 0 0 0-.386-1.34c-1.583.55-3.165 1.1-4.735 1.677a2.569 2.569 0 0 0 2.543 2.24zM211.635 0a2.577 2.577 0 1 0 0 5.154 2.577 2.577 0 0 0 0-5.154zM235.368 0a2.577 2.577 0 1 0 .001 5.154A2.577 2.577 0 0 0 235.368 0zM259.101 0a2.578 2.578 0 1 0 0 5.156 2.578 2.578 0 0 0 0-5.156zM282.836 0a2.578 2.578 0 1 0 0 5.156 2.578 2.578 0 0 0 0-5.156zM306.57 0a2.577 2.577 0 1 0-.002 5.154A2.577 2.577 0 0 0 306.57 0zM330.303 0a2.577 2.577 0 1 0-.001 5.154A2.577 2.577 0 0 0 330.303 0zM354.036 0a2.577 2.577 0 1 0 0 5.154 2.577 2.577 0 0 0 0-5.154zM377.77 5.155a2.57 2.57 0 0 0 2.545-2.239c-1.57-.578-3.154-1.127-4.738-1.677-.249.403-.381.866-.384 1.34a2.577 2.577 0 0 0 2.578 2.576zM140.435 26.412a2.577 2.577 0 0 0 2.577-2.578 2.563 2.563 0 0 0-.244-1.078 276.718 276.718 0 0 0-4.412 2.589 2.563 2.563 0 0 0 2.079 1.067zM164.166 21.256a2.577 2.577 0 1 0 0 5.154 2.577 2.577 0 0 0 0-5.154zM187.9 21.256a2.577 2.577 0 1 0 0 5.154 2.577 2.577 0 0 0 0-5.154zM211.635 21.256a2.577 2.577 0 1 0 0 5.154 2.577 2.577 0 0 0 0-5.154zM235.368 21.256a2.577 2.577 0 1 0 .002 5.154 2.577 2.577 0 0 0-.002-5.154zM259.101 21.256a2.578 2.578 0 1 0 0 5.156 2.578 2.578 0 0 0 0-5.156zM282.836 21.256a2.578 2.578 0 1 0 0 5.156 2.578 2.578 0 0 0 0-5.156zM306.57 21.256a2.577 2.577 0 1 0-.002 5.154 2.577 2.577 0 0 0 .002-5.154zM330.303 21.256a2.577 2.577 0 1 0-.001 5.154 2.577 2.577 0 0 0 .001-5.154zM354.036 21.256a2.577 2.577 0 1 0 0 5.154 2.577 2.577 0 0 0 0-5.154zM377.77 21.256a2.577 2.577 0 1 0 0 5.154 2.577 2.577 0 0 0 0-5.154zM401.505 21.256a2.577 2.577 0 1 0 0 5.154 2.577 2.577 0 0 0 0-5.154zM425.238 26.412a2.568 2.568 0 0 0 2.08-1.067 276.718 276.718 0 0 0-4.413-2.589 2.543 2.543 0 0 0-.243 1.078 2.577 2.577 0 0 0 2.577 2.578zM116.7 42.51a2.579 2.579 0 0 0-1.822 4.4 2.577 2.577 0 1 0 1.823-4.4zM140.434 42.51a2.578 2.578 0 1 0 0 5.156 2.578 2.578 0 0 0 0-5.156z"/>
        <circle cx="164.167" cy="45.089" r="2.577"/>
        <circle cx="187.9" cy="45.089" r="2.577"/>
        <path d="M211.635 42.51a2.578 2.578 0 1 0 .001 5.156 2.578 2.578 0 0 0-.001-5.156z"/>
        <circle cx="235.368" cy="45.089" r="2.577"/>
        <circle cx="259.101" cy="45.089" r="2.577"/>
        <path d="M282.836 42.51a2.578 2.578 0 1 0 0 5.154 2.578 2.578 0 0 0 0-5.154z"/>
        <circle cx="306.568" cy="45.089" r="2.577"/>
        <circle cx="330.303" cy="45.089" r="2.577"/>
        <path d="M354.036 42.51a2.578 2.578 0 1 0 .002 5.156 2.578 2.578 0 0 0-.002-5.156z"/>
        <circle cx="377.771" cy="45.089" r="2.577"/>
        <circle cx="401.503" cy="45.089" r="2.577"/>
        <path d="M425.238 42.51a2.578 2.578 0 1 0 .002 5.156 2.578 2.578 0 0 0-.002-5.156zM448.973 42.51a2.578 2.578 0 1 0-.002 5.154 2.578 2.578 0 0 0 .002-5.154zM92.966 63.767a2.578 2.578 0 1 0-.001 5.156 2.578 2.578 0 0 0 .001-5.156zM116.7 63.767a2.578 2.578 0 1 0 0 5.156 2.578 2.578 0 0 0 0-5.156zM140.434 63.767a2.577 2.577 0 1 0-.002 5.154 2.577 2.577 0 0 0 .002-5.154zM164.166 63.767a2.577 2.577 0 1 0 0 5.154 2.577 2.577 0 0 0 0-5.154zM187.9 63.767a2.577 2.577 0 1 0 0 5.154 2.577 2.577 0 0 0 0-5.154zM211.635 63.767a2.577 2.577 0 1 0 0 5.154 2.577 2.577 0 0 0 0-5.154zM235.368 63.767a2.577 2.577 0 1 0 .001 5.154 2.577 2.577 0 0 0-.001-5.154zM259.101 63.767a2.578 2.578 0 1 0 0 5.156 2.578 2.578 0 0 0 0-5.156zM282.836 63.767a2.578 2.578 0 1 0 0 5.156 2.578 2.578 0 0 0 0-5.156zM306.57 63.767a2.577 2.577 0 1 0-.002 5.154 2.577 2.577 0 0 0 .002-5.154zM330.303 63.767a2.577 2.577 0 1 0-.001 5.154 2.577 2.577 0 0 0 .001-5.154zM354.036 63.767a2.577 2.577 0 1 0 0 5.154 2.577 2.577 0 0 0 0-5.154zM377.77 63.767a2.577 2.577 0 1 0 0 5.154 2.577 2.577 0 0 0 0-5.154zM401.505 63.767a2.577 2.577 0 1 0 0 5.154 2.577 2.577 0 0 0 0-5.154zM425.238 63.767a2.577 2.577 0 1 0 0 5.154 2.577 2.577 0 0 0 0-5.154zM448.973 63.767a2.579 2.579 0 0 0-1.824 4.4 2.578 2.578 0 1 0 1.824-4.4zM472.704 63.767a2.577 2.577 0 1 0 0 5.155 2.577 2.577 0 0 0 0-5.155zM69.231 85.024a2.577 2.577 0 1 0 0 5.154 2.577 2.577 0 0 0 0-5.154zM92.966 85.024a2.578 2.578 0 1 0-.001 5.156 2.578 2.578 0 0 0 .001-5.156zM116.7 85.024a2.577 2.577 0 1 0-.001 5.154 2.577 2.577 0 0 0 .002-5.154zM140.434 85.024a2.577 2.577 0 1 0-.002 5.154 2.577 2.577 0 0 0 .002-5.154zM164.166 85.024a2.577 2.577 0 1 0 0 5.154 2.577 2.577 0 0 0 0-5.154zM187.9 85.024a2.577 2.577 0 1 0 0 5.154 2.577 2.577 0 0 0 0-5.154zM211.635 85.024a2.577 2.577 0 1 0 0 5.154 2.577 2.577 0 0 0 0-5.154zM235.368 85.024a2.576 2.576 0 0 0-2.576 2.577 2.578 2.578 0 1 0 2.576-2.577zM259.101 85.024a2.578 2.578 0 1 0 0 5.156 2.578 2.578 0 0 0 0-5.156zM282.836 85.024a2.578 2.578 0 1 0 0 5.156 2.578 2.578 0 0 0 0-5.156zM306.57 85.024a2.577 2.577 0 1 0-.002 5.154 2.577 2.577 0 0 0 .002-5.154zM330.303 85.024a2.577 2.577 0 1 0-.001 5.154 2.577 2.577 0 0 0 .001-5.154zM354.036 85.024a2.577 2.577 0 1 0 0 5.154 2.577 2.577 0 0 0 0-5.154zM377.77 85.024a2.577 2.577 0 1 0 0 5.154 2.577 2.577 0 0 0 0-5.154zM401.505 85.024a2.577 2.577 0 1 0 0 5.154 2.577 2.577 0 0 0 0-5.154zM425.238 85.024a2.577 2.577 0 1 0 0 5.154 2.577 2.577 0 0 0 0-5.154zM448.973 85.024a2.578 2.578 0 1 0-.002 5.156 2.578 2.578 0 0 0 .002-5.156zM472.704 85.024a2.577 2.577 0 1 0 0 5.155 2.578 2.578 0 0 0 0-5.155zM496.44 85.024a2.577 2.577 0 1 0 0 5.155 2.578 2.578 0 0 0 0-5.155zM69.231 106.279a2.578 2.578 0 1 0 .003 5.156 2.578 2.578 0 0 0-.002-5.156zM92.966 106.279a2.579 2.579 0 0 0-1.823 4.4 2.578 2.578 0 1 0 1.823-4.4zM116.7 106.279a2.578 2.578 0 1 0 0 5.156 2.578 2.578 0 0 0 0-5.156zM140.434 106.279a2.578 2.578 0 1 0 0 5.156 2.578 2.578 0 0 0 0-5.156zM164.166 106.279a2.578 2.578 0 1 0 .002 5.156 2.578 2.578 0 0 0-.002-5.156zM187.9 106.279a2.578 2.578 0 1 0 .002 5.156 2.578 2.578 0 0 0-.002-5.156zM211.635 106.279a2.578 2.578 0 1 0 .002 5.156 2.578 2.578 0 0 0-.002-5.156zM235.368 106.279a2.578 2.578 0 1 0 .004 5.156 2.578 2.578 0 0 0-.005-5.156zM259.101 106.279a2.578 2.578 0 1 0 0 5.154 2.578 2.578 0 0 0 0-5.154zM282.836 106.279a2.578 2.578 0 1 0 0 5.154 2.578 2.578 0 0 0 0-5.154zM306.57 106.279a2.578 2.578 0 1 0 0 5.156 2.578 2.578 0 0 0 0-5.156zM330.303 106.279a2.578 2.578 0 1 0 0 5.156 2.578 2.578 0 0 0 0-5.156zM354.036 106.279a2.578 2.578 0 1 0 .003 5.156 2.578 2.578 0 0 0-.002-5.156zM377.77 106.279a2.578 2.578 0 1 0 .003 5.156 2.578 2.578 0 0 0-.002-5.156zM401.505 106.279a2.578 2.578 0 1 0 .002 5.156 2.578 2.578 0 0 0-.002-5.156zM425.238 106.279a2.578 2.578 0 1 0 .003 5.156 2.578 2.578 0 0 0-.002-5.156zM448.973 106.279a2.578 2.578 0 1 0-.002 5.154 2.578 2.578 0 0 0 .002-5.154zM472.704 106.279a2.578 2.578 0 1 0-.002 5.156 2.578 2.578 0 0 0 .002-5.156zM496.44 106.279a2.579 2.579 0 0 0-1.823 4.4 2.577 2.577 0 1 0 1.824-4.4zM45.498 127.535a2.576 2.576 0 0 0-1.822 4.4 2.577 2.577 0 1 0 1.822-4.4zM69.231 127.535a2.577 2.577 0 1 0 0 5.154 2.577 2.577 0 0 0 0-5.154zM92.966 127.535a2.578 2.578 0 1 0-.002 5.156 2.578 2.578 0 0 0 .002-5.156zM116.7 127.535a2.577 2.577 0 1 0-.001 5.154 2.577 2.577 0 0 0 .002-5.154zM140.434 127.535a2.577 2.577 0 1 0-.002 5.154 2.577 2.577 0 0 0 .002-5.154zM164.166 127.535a2.577 2.577 0 1 0 0 5.154 2.577 2.577 0 0 0 0-5.154zM187.9 127.535a2.577 2.577 0 1 0 0 5.154 2.577 2.577 0 0 0 0-5.154zM211.635 127.535a2.577 2.577 0 1 0 0 5.154 2.577 2.577 0 0 0 0-5.154zM235.368 127.535a2.576 2.576 0 0 0-1.822 4.4 2.577 2.577 0 1 0 1.822-4.4zM259.101 127.535a2.578 2.578 0 1 0 0 5.156 2.578 2.578 0 0 0 0-5.156zM282.836 127.535a2.578 2.578 0 1 0 0 5.156 2.578 2.578 0 0 0 0-5.156zM306.57 127.535a2.577 2.577 0 1 0-.002 5.154 2.577 2.577 0 0 0 .002-5.154zM330.303 127.535a2.577 2.577 0 1 0-.001 5.154 2.577 2.577 0 0 0 .001-5.154zM354.036 127.535a2.577 2.577 0 1 0 0 5.154 2.577 2.577 0 0 0 0-5.154zM377.77 127.535a2.577 2.577 0 1 0 0 5.154 2.577 2.577 0 0 0 0-5.154zM401.505 127.535a2.577 2.577 0 1 0 0 5.154 2.577 2.577 0 0 0 0-5.154zM425.238 127.535a2.577 2.577 0 1 0 0 5.154 2.577 2.577 0 0 0 0-5.154zM448.973 127.535a2.578 2.578 0 1 0-.003 5.156 2.578 2.578 0 0 0 .002-5.156zM472.704 127.535a2.577 2.577 0 1 0 2.577 2.577 2.577 2.577 0 0 0-2.577-2.577zM496.44 127.535a2.577 2.577 0 1 0 2.577 2.577 2.577 2.577 0 0 0-2.577-2.577zM520.172 127.535a2.577 2.577 0 1 0 0 5.154 2.577 2.577 0 0 0 0-5.154zM45.498 148.791a2.576 2.576 0 0 0-2.577 2.577 2.578 2.578 0 1 0 2.578-2.577zM69.231 148.791a2.577 2.577 0 1 0 0 5.154 2.577 2.577 0 0 0 0-5.154zM92.966 148.791a2.578 2.578 0 1 0-.002 5.156 2.578 2.578 0 0 0 .002-5.156zM116.7 148.791a2.577 2.577 0 1 0-.001 5.154 2.577 2.577 0 0 0 .002-5.154zM140.434 148.791a2.577 2.577 0 1 0-.002 5.154 2.577 2.577 0 0 0 .002-5.154zM164.166 148.791a2.577 2.577 0 1 0 0 5.154 2.577 2.577 0 0 0 0-5.154zM187.9 148.791a2.577 2.577 0 1 0 0 5.154 2.577 2.577 0 0 0 0-5.154zM211.635 148.791a2.577 2.577 0 1 0 0 5.154 2.577 2.577 0 0 0 0-5.154zM235.368 148.791a2.577 2.577 0 1 0 .002 5.154 2.577 2.577 0 0 0-.002-5.154zM259.101 148.791a2.578 2.578 0 1 0 0 5.156 2.578 2.578 0 0 0 0-5.156zM282.836 148.791a2.578 2.578 0 1 0 0 5.156 2.578 2.578 0 0 0 0-5.156zM306.57 148.791a2.577 2.577 0 1 0-.002 5.154 2.577 2.577 0 0 0 .002-5.154zM330.303 148.791a2.577 2.577 0 1 0-.001 5.154 2.577 2.577 0 0 0 .001-5.154zM354.036 148.791a2.577 2.577 0 1 0 0 5.154 2.577 2.577 0 0 0 0-5.154zM377.77 148.791a2.577 2.577 0 1 0 0 5.154 2.577 2.577 0 0 0 0-5.154zM401.505 148.791a2.577 2.577 0 1 0 0 5.154 2.577 2.577 0 0 0 0-5.154zM425.238 148.791a2.577 2.577 0 1 0 0 5.154 2.577 2.577 0 0 0 0-5.154zM448.973 148.791a2.578 2.578 0 1 0-.003 5.156 2.578 2.578 0 0 0 .002-5.156zM472.704 148.791a2.577 2.577 0 1 0 0 5.155 2.578 2.578 0 0 0 0-5.155zM496.44 148.791a2.577 2.577 0 1 0 0 5.155 2.578 2.578 0 0 0 0-5.155zM520.172 148.791a2.577 2.577 0 1 0 0 5.154 2.577 2.577 0 0 0 0-5.154zM21.764 170.046a2.577 2.577 0 1 0 0 5.154 2.577 2.577 0 0 0 0-5.154zM45.498 170.046a2.577 2.577 0 1 0 0 5.154 2.577 2.577 0 0 0 0-5.154zM69.231 170.046a2.577 2.577 0 1 0 0 5.154 2.577 2.577 0 0 0 0-5.154zM92.966 170.046a2.578 2.578 0 1 0-.001 5.156 2.578 2.578 0 0 0 .001-5.156zM116.7 170.046a2.577 2.577 0 1 0-.002 5.154 2.577 2.577 0 0 0 .003-5.154zM140.434 170.046a2.577 2.577 0 1 0-.003 5.154 2.577 2.577 0 0 0 .002-5.154zM164.166 170.046a2.577 2.577 0 1 0 0 5.154 2.577 2.577 0 0 0 0-5.154zM187.9 170.046a2.577 2.577 0 1 0 0 5.154 2.577 2.577 0 0 0 0-5.154zM211.635 170.046a2.577 2.577 0 1 0 0 5.154 2.577 2.577 0 0 0 0-5.154zM235.368 170.046a2.577 2.577 0 1 0 .001 5.154 2.577 2.577 0 0 0-.001-5.154zM259.101 170.046a2.578 2.578 0 1 0 0 5.156 2.578 2.578 0 0 0 0-5.156zM282.836 170.046a2.578 2.578 0 1 0 0 5.156 2.578 2.578 0 0 0 0-5.156zM306.57 170.046a2.577 2.577 0 1 0-.003 5.154 2.577 2.577 0 0 0 .002-5.154zM330.303 170.046a2.577 2.577 0 1 0-.002 5.154 2.577 2.577 0 0 0 .002-5.154zM354.036 170.046a2.577 2.577 0 1 0 0 5.154 2.577 2.577 0 0 0 0-5.154zM377.77 170.046a2.577 2.577 0 1 0 0 5.154 2.577 2.577 0 0 0 0-5.154zM401.505 170.046a2.577 2.577 0 1 0 0 5.154 2.577 2.577 0 0 0 0-5.154zM425.238 170.046a2.577 2.577 0 1 0 0 5.154 2.577 2.577 0 0 0 0-5.154zM448.973 170.046a2.579 2.579 0 0 0-1.824 4.4 2.578 2.578 0 1 0 1.824-4.4zM472.704 170.046a2.577 2.577 0 1 0 0 5.155 2.577 2.577 0 0 0 0-5.155zM496.44 170.046a2.578 2.578 0 1 0-.001 5.156 2.578 2.578 0 0 0 .001-5.156zM520.172 170.046a2.577 2.577 0 1 0 0 5.154 2.577 2.577 0 0 0 0-5.154zM543.905 170.046a2.577 2.577 0 1 0 0 5.154 2.577 2.577 0 0 0 0-5.154zM21.764 191.302a2.577 2.577 0 1 0 0 5.154 2.577 2.577 0 0 0 0-5.154zM45.498 191.302a2.576 2.576 0 0 0-1.822 4.4 2.577 2.577 0 1 0 1.822-4.4zM69.231 191.302a2.577 2.577 0 1 0 0 5.154 2.577 2.577 0 0 0 0-5.154zM92.966 191.302a2.578 2.578 0 1 0-.002 5.156 2.578 2.578 0 0 0 .002-5.156zM116.7 191.302a2.577 2.577 0 1 0-.001 5.154 2.577 2.577 0 0 0 .002-5.154zM140.434 191.302a2.577 2.577 0 1 0-.002 5.154 2.577 2.577 0 0 0 .002-5.154zM164.166 191.302a2.577 2.577 0 1 0 0 5.154 2.577 2.577 0 0 0 0-5.154zM187.9 191.302a2.577 2.577 0 1 0 0 5.154 2.577 2.577 0 0 0 0-5.154zM211.635 191.302a2.577 2.577 0 1 0 0 5.154 2.577 2.577 0 0 0 0-5.154zM235.368 191.302a2.577 2.577 0 1 0 .002 5.154 2.577 2.577 0 0 0-.002-5.154zM259.101 191.302a2.578 2.578 0 1 0 0 5.156 2.578 2.578 0 0 0 0-5.156zM282.836 191.302a2.578 2.578 0 1 0 0 5.156 2.578 2.578 0 0 0 0-5.156zM306.57 191.302a2.577 2.577 0 1 0-.002 5.154 2.577 2.577 0 0 0 .002-5.154zM330.303 191.302a2.577 2.577 0 1 0-.001 5.154 2.577 2.577 0 0 0 .001-5.154zM354.036 191.302a2.577 2.577 0 1 0 0 5.154 2.577 2.577 0 0 0 0-5.154zM377.77 191.302a2.577 2.577 0 1 0 0 5.154 2.577 2.577 0 0 0 0-5.154zM401.505 191.302a2.577 2.577 0 1 0 0 5.154 2.577 2.577 0 0 0 0-5.154zM425.238 191.302a2.577 2.577 0 1 0 0 5.154 2.577 2.577 0 0 0 0-5.154zM448.973 191.302a2.578 2.578 0 1 0-.003 5.156 2.578 2.578 0 0 0 .002-5.156zM472.704 191.302a2.577 2.577 0 1 0 2.577 2.577 2.577 2.577 0 0 0-2.577-2.577zM496.44 191.302a2.577 2.577 0 1 0-.003 5.154 2.577 2.577 0 0 0 .003-5.154zM520.172 191.302a2.577 2.577 0 1 0 0 5.154 2.577 2.577 0 0 0 0-5.154zM543.905 191.302a2.577 2.577 0 1 0 0 5.154 2.577 2.577 0 0 0 0-5.154zM21.764 212.557a2.578 2.578 0 1 0 .002 5.156 2.578 2.578 0 0 0-.002-5.156zM45.498 212.557a2.578 2.578 0 1 0 .003 5.156 2.578 2.578 0 0 0-.002-5.156zM69.231 212.557a2.578 2.578 0 1 0 .003 5.156 2.578 2.578 0 0 0-.002-5.156zM92.966 212.557a2.579 2.579 0 0 0-1.823 4.4 2.578 2.578 0 1 0 1.823-4.4zM116.7 212.557a2.578 2.578 0 1 0 0 5.156 2.578 2.578 0 0 0 0-5.156zM140.434 212.557a2.578 2.578 0 1 0 0 5.156 2.578 2.578 0 0 0 0-5.156zM164.166 212.557a2.578 2.578 0 1 0 .002 5.156 2.578 2.578 0 0 0-.002-5.156zM187.9 212.557a2.578 2.578 0 1 0 .002 5.156 2.578 2.578 0 0 0-.002-5.156zM211.635 212.557a2.578 2.578 0 1 0 .002 5.156 2.578 2.578 0 0 0-.002-5.156zM235.368 212.557a2.578 2.578 0 1 0 .004 5.156 2.578 2.578 0 0 0-.005-5.156zM259.101 212.557a2.578 2.578 0 1 0 0 5.154 2.578 2.578 0 0 0 0-5.154zM282.836 212.557a2.578 2.578 0 1 0 0 5.154 2.578 2.578 0 0 0 0-5.154zM306.57 212.557a2.578 2.578 0 1 0 0 5.156 2.578 2.578 0 0 0 0-5.156zM330.303 212.557a2.578 2.578 0 1 0 0 5.156 2.578 2.578 0 0 0 0-5.156zM354.036 212.557a2.578 2.578 0 1 0 .003 5.156 2.578 2.578 0 0 0-.002-5.156zM377.77 212.557a2.578 2.578 0 1 0 .003 5.156 2.578 2.578 0 0 0-.002-5.156zM401.505 212.557a2.578 2.578 0 1 0 .002 5.156 2.578 2.578 0 0 0-.002-5.156zM425.238 212.557a2.578 2.578 0 1 0 .003 5.156 2.578 2.578 0 0 0-.002-5.156zM448.973 212.557a2.578 2.578 0 1 0-.002 5.154 2.578 2.578 0 0 0 .002-5.154zM472.704 212.557a2.578 2.578 0 1 0-.002 5.156 2.578 2.578 0 0 0 .002-5.156zM496.44 212.557a2.579 2.579 0 0 0-1.823 4.4 2.577 2.577 0 1 0 1.824-4.4zM520.172 212.557a2.578 2.578 0 1 0 .002 5.156 2.578 2.578 0 0 0-.002-5.156zM543.905 212.557a2.578 2.578 0 1 0 .003 5.156 2.578 2.578 0 0 0-.003-5.156zM21.764 233.814a2.577 2.577 0 1 0 0 5.154 2.577 2.577 0 0 0 0-5.154zM45.498 233.814a2.577 2.577 0 1 0 0 5.154 2.577 2.577 0 0 0 0-5.154zM69.231 233.814a2.577 2.577 0 1 0 0 5.154 2.577 2.577 0 0 0 0-5.154z"/>
        <circle cx="92.966" cy="236.391" r="2.577"/>
        <path d="M116.7 233.814a2.578 2.578 0 1 0 0 5.156 2.578 2.578 0 0 0 0-5.156zM140.434 233.814a2.577 2.577 0 1 0-.003 5.154 2.577 2.577 0 0 0 .002-5.154z"/>
        <circle cx="164.167" cy="236.391" r="2.577"/>
        <circle cx="187.9" cy="236.391" r="2.577"/>
        <path d="M211.635 233.814a2.577 2.577 0 1 0 0 5.154 2.577 2.577 0 0 0 0-5.154z"/>
        <circle cx="235.368" cy="236.391" r="2.577"/>
        <circle cx="259.101" cy="236.391" r="2.577"/>
        <path d="M282.836 233.814a2.578 2.578 0 1 0 0 5.156 2.578 2.578 0 0 0 0-5.156z"/>
        <circle cx="306.568" cy="236.391" r="2.577"/>
        <circle cx="330.303" cy="236.391" r="2.577"/>
        <path d="M354.036 233.814a2.577 2.577 0 1 0 0 5.154 2.577 2.577 0 0 0 0-5.154z"/>
        <circle cx="377.771" cy="236.391" r="2.577"/>
        <circle cx="401.503" cy="236.391" r="2.577"/>
        <path d="M425.238 233.814a2.577 2.577 0 1 0 0 5.154 2.577 2.577 0 0 0 0-5.154zM448.973 233.814a2.579 2.579 0 0 0-1.824 4.4 2.578 2.578 0 1 0 1.824-4.4z"/>
        <circle cx="472.705" cy="236.391" r="2.577"/>
        <path d="M496.44 233.814a2.578 2.578 0 1 0-.001 5.156 2.578 2.578 0 0 0 .001-5.156zM520.172 233.814a2.577 2.577 0 1 0 0 5.154 2.577 2.577 0 0 0 0-5.154zM543.905 233.814a2.577 2.577 0 1 0 0 5.154 2.577 2.577 0 0 0 0-5.154zM.462 256.823c-.024.618-.05 1.234-.07 1.852.142-.325.216-.675.217-1.03a2.541 2.541 0 0 0-.147-.822zM21.764 255.07a2.577 2.577 0 1 0 0 5.154 2.577 2.577 0 0 0 0-5.154zM45.498 255.07a2.576 2.576 0 0 0-2.577 2.577 2.578 2.578 0 1 0 2.578-2.577zM69.231 255.07a2.577 2.577 0 1 0 0 5.154 2.577 2.577 0 0 0 0-5.154zM92.966 255.07a2.578 2.578 0 1 0-.002 5.156 2.578 2.578 0 0 0 .002-5.156zM116.7 255.07a2.577 2.577 0 1 0-.001 5.154 2.577 2.577 0 0 0 .002-5.154zM140.434 255.07a2.577 2.577 0 1 0-.002 5.154 2.577 2.577 0 0 0 .002-5.154zM164.166 255.07a2.577 2.577 0 1 0 0 5.154 2.577 2.577 0 0 0 0-5.154zM187.9 255.07a2.577 2.577 0 1 0 0 5.154 2.577 2.577 0 0 0 0-5.154zM211.635 255.07a2.577 2.577 0 1 0 0 5.154 2.577 2.577 0 0 0 0-5.154zM235.368 255.07a2.576 2.576 0 0 0-2.576 2.577 2.578 2.578 0 1 0 2.576-2.577zM259.101 255.07a2.578 2.578 0 1 0 0 5.156 2.578 2.578 0 0 0 0-5.156zM282.836 255.07a2.578 2.578 0 1 0 0 5.156 2.578 2.578 0 0 0 0-5.156zM306.57 255.07a2.577 2.577 0 1 0-.002 5.154 2.577 2.577 0 0 0 .002-5.154zM330.303 255.07a2.577 2.577 0 1 0-.001 5.154 2.577 2.577 0 0 0 .001-5.154zM354.036 255.07a2.577 2.577 0 1 0 0 5.154 2.577 2.577 0 0 0 0-5.154zM377.77 255.07a2.577 2.577 0 1 0 0 5.154 2.577 2.577 0 0 0 0-5.154zM401.505 255.07a2.577 2.577 0 1 0 0 5.154 2.577 2.577 0 0 0 0-5.154zM425.238 255.07a2.577 2.577 0 1 0 0 5.154 2.577 2.577 0 0 0 0-5.154zM448.973 255.07a2.578 2.578 0 1 0-.003 5.156 2.578 2.578 0 0 0 .002-5.156zM472.704 255.07a2.577 2.577 0 1 0 0 5.155 2.578 2.578 0 0 0 0-5.155zM496.44 255.07a2.577 2.577 0 1 0 0 5.155 2.578 2.578 0 0 0 0-5.155zM520.172 255.07a2.577 2.577 0 1 0 0 5.154 2.577 2.577 0 0 0 0-5.154zM543.905 255.07a2.577 2.577 0 1 0 0 5.154 2.577 2.577 0 0 0 0-5.154zM565.28 258.676c-.02-.618-.045-1.234-.07-1.852a2.546 2.546 0 0 0-.146.822c0 .355.074.705.216 1.03zM.392 277.873c.02.618.045 1.234.07 1.852.093-.264.143-.542.147-.822 0-.355-.075-.705-.217-1.03zM21.764 276.325a2.578 2.578 0 1 0 .002 5.156 2.578 2.578 0 0 0-.002-5.156zM45.498 276.325a2.578 2.578 0 1 0 .003 5.156 2.578 2.578 0 0 0-.002-5.156zM69.231 276.325a2.578 2.578 0 1 0 .003 5.156 2.578 2.578 0 0 0-.002-5.156zM92.966 276.325a2.579 2.579 0 0 0-1.823 4.4 2.578 2.578 0 1 0 1.823-4.4zM116.7 276.325a2.578 2.578 0 1 0 0 5.156 2.578 2.578 0 0 0 0-5.156zM140.434 276.325a2.578 2.578 0 1 0 0 5.156 2.578 2.578 0 0 0 0-5.156zM164.166 276.325a2.578 2.578 0 1 0 .002 5.156 2.578 2.578 0 0 0-.002-5.156zM187.9 276.325a2.578 2.578 0 1 0 .002 5.156 2.578 2.578 0 0 0-.002-5.156zM211.635 276.325a2.578 2.578 0 1 0 .002 5.156 2.578 2.578 0 0 0-.002-5.156zM235.368 276.325a2.578 2.578 0 1 0 .004 5.156 2.578 2.578 0 0 0-.005-5.156zM259.101 276.325a2.578 2.578 0 1 0 0 5.154 2.578 2.578 0 0 0 0-5.154zM282.836 276.325a2.578 2.578 0 1 0 0 5.154 2.578 2.578 0 0 0 0-5.154zM306.57 276.325a2.578 2.578 0 1 0 0 5.156 2.578 2.578 0 0 0 0-5.156zM330.303 276.325a2.578 2.578 0 1 0 0 5.156 2.578 2.578 0 0 0 0-5.156zM354.036 276.325a2.578 2.578 0 1 0 .003 5.156 2.578 2.578 0 0 0-.002-5.156zM377.77 276.325a2.578 2.578 0 1 0 .003 5.156 2.578 2.578 0 0 0-.002-5.156zM401.505 276.325a2.578 2.578 0 1 0 .002 5.156 2.578 2.578 0 0 0-.002-5.156zM425.238 276.325a2.578 2.578 0 1 0 .003 5.156 2.578 2.578 0 0 0-.002-5.156zM448.973 276.325a2.578 2.578 0 1 0-.002 5.154 2.578 2.578 0 0 0 .002-5.154zM472.704 276.325a2.578 2.578 0 1 0-.002 5.156 2.578 2.578 0 0 0 .002-5.156zM496.44 276.325a2.579 2.579 0 0 0-1.823 4.4 2.577 2.577 0 1 0 1.824-4.4zM520.172 276.325a2.578 2.578 0 1 0 .002 5.156 2.578 2.578 0 0 0-.002-5.156zM543.905 276.325a2.578 2.578 0 1 0 .003 5.156 2.578 2.578 0 0 0-.003-5.156zM565.208 279.725c.026-.618.05-1.235.072-1.852a2.567 2.567 0 0 0-.217 1.03c.003.28.052.558.145.822zM21.764 297.581a2.577 2.577 0 1 0 0 5.154 2.577 2.577 0 0 0 0-5.154zM45.498 297.581a2.576 2.576 0 0 0-1.822 4.4 2.577 2.577 0 1 0 1.822-4.4zM69.231 297.581a2.577 2.577 0 1 0 0 5.154 2.577 2.577 0 0 0 0-5.154zM92.966 297.581a2.578 2.578 0 1 0-.002 5.156 2.578 2.578 0 0 0 .002-5.156zM116.7 297.581a2.577 2.577 0 1 0-.001 5.154 2.577 2.577 0 0 0 .002-5.154zM140.434 297.581a2.577 2.577 0 1 0-.002 5.154 2.577 2.577 0 0 0 .002-5.154zM164.166 297.581a2.577 2.577 0 1 0 0 5.154 2.577 2.577 0 0 0 0-5.154zM187.9 297.581a2.577 2.577 0 1 0 0 5.154 2.577 2.577 0 0 0 0-5.154zM211.635 297.581a2.577 2.577 0 1 0 0 5.154 2.577 2.577 0 0 0 0-5.154zM235.368 297.581a2.577 2.577 0 1 0 .002 5.154 2.577 2.577 0 0 0-.002-5.154zM259.101 297.581a2.578 2.578 0 1 0 0 5.156 2.578 2.578 0 0 0 0-5.156zM282.836 297.581a2.578 2.578 0 1 0 0 5.156 2.578 2.578 0 0 0 0-5.156zM306.57 297.581a2.577 2.577 0 1 0-.002 5.154 2.577 2.577 0 0 0 .002-5.154zM330.303 297.581a2.577 2.577 0 1 0-.001 5.154 2.577 2.577 0 0 0 .001-5.154zM354.036 297.581a2.577 2.577 0 1 0 0 5.154 2.577 2.577 0 0 0 0-5.154zM377.77 297.581a2.577 2.577 0 1 0 0 5.154 2.577 2.577 0 0 0 0-5.154zM401.505 297.581a2.577 2.577 0 1 0 0 5.154 2.577 2.577 0 0 0 0-5.154zM425.238 297.581a2.577 2.577 0 1 0 0 5.154 2.577 2.577 0 0 0 0-5.154zM448.973 297.581a2.578 2.578 0 1 0-.003 5.156 2.578 2.578 0 0 0 .002-5.156zM472.704 297.581a2.577 2.577 0 1 0 2.577 2.577 2.577 2.577 0 0 0-2.577-2.577zM496.44 297.581a2.577 2.577 0 1 0 2.577 2.577 2.577 2.577 0 0 0-2.577-2.577zM520.172 297.581a2.577 2.577 0 1 0 0 5.154 2.577 2.577 0 0 0 0-5.154zM543.905 297.581a2.577 2.577 0 1 0 0 5.154 2.577 2.577 0 0 0 0-5.154zM21.764 318.837a2.577 2.577 0 1 0 0 5.154 2.577 2.577 0 0 0 0-5.154zM45.498 318.837a2.576 2.576 0 1 0 0 5.154 2.578 2.578 0 1 0 0-5.154zM69.231 318.837a2.577 2.577 0 1 0 0 5.154 2.577 2.577 0 0 0 0-5.154zM92.966 318.837a2.578 2.578 0 1 0-.002 5.156 2.578 2.578 0 0 0 .002-5.156zM116.7 318.837a2.577 2.577 0 1 0-.001 5.154 2.577 2.577 0 0 0 .002-5.154zM140.434 318.837a2.577 2.577 0 1 0-.002 5.154 2.577 2.577 0 0 0 .002-5.154zM164.166 318.837a2.577 2.577 0 1 0 0 5.154 2.577 2.577 0 0 0 0-5.154zM187.9 318.837a2.577 2.577 0 1 0 0 5.154 2.577 2.577 0 0 0 0-5.154zM211.635 318.837a2.577 2.577 0 1 0 0 5.154 2.577 2.577 0 0 0 0-5.154zM235.368 318.837a2.576 2.576 0 0 0 0 5.154 2.578 2.578 0 1 0 0-5.154zM259.101 318.837a2.578 2.578 0 0 0-2.577 2.577 2.578 2.578 0 0 0 5.154-.002 2.577 2.577 0 0 0-2.577-2.575zM282.836 318.837a2.578 2.578 0 1 0 0 5.156 2.578 2.578 0 0 0 0-5.156zM306.57 318.837a2.577 2.577 0 1 0-.002 5.154 2.577 2.577 0 0 0 .002-5.154zM330.303 318.837a2.577 2.577 0 1 0-.001 5.154 2.577 2.577 0 0 0 .001-5.154zM354.036 318.837a2.577 2.577 0 1 0 0 5.154 2.577 2.577 0 0 0 0-5.154zM377.77 318.837a2.577 2.577 0 1 0 0 5.154 2.577 2.577 0 0 0 0-5.154zM401.505 318.837a2.577 2.577 0 1 0 0 5.154 2.577 2.577 0 0 0 0-5.154zM425.238 318.837a2.577 2.577 0 1 0 0 5.154 2.577 2.577 0 0 0 0-5.154zM448.973 318.837a2.578 2.578 0 1 0-.003 5.156 2.578 2.578 0 0 0 .002-5.156zM472.704 318.837a2.577 2.577 0 1 0 2.577 2.575 2.577 2.577 0 0 0-2.577-2.575zM496.44 318.837a2.577 2.577 0 1 0 0 5.154 2.577 2.577 0 0 0 0-5.154zM520.172 318.837a2.577 2.577 0 1 0 0 5.154 2.577 2.577 0 0 0 0-5.154zM543.905 318.837a2.577 2.577 0 1 0 0 5.154 2.577 2.577 0 0 0 0-5.154zM21.764 340.092a2.577 2.577 0 1 0 0 5.154 2.577 2.577 0 0 0 0-5.154zM45.498 340.092a2.577 2.577 0 1 0 0 5.154 2.577 2.577 0 0 0 0-5.154zM69.231 340.092a2.577 2.577 0 1 0 0 5.154 2.577 2.577 0 0 0 0-5.154zM92.966 340.092a2.578 2.578 0 1 0-.001 5.156 2.578 2.578 0 0 0 .001-5.156zM116.7 340.092a2.578 2.578 0 1 0 0 5.156 2.578 2.578 0 0 0 0-5.156zM140.434 340.092a2.577 2.577 0 1 0-.003 5.154 2.577 2.577 0 0 0 .002-5.154zM164.166 340.092a2.577 2.577 0 1 0 0 5.154 2.577 2.577 0 0 0 0-5.154zM187.9 340.092a2.577 2.577 0 1 0 0 5.154 2.577 2.577 0 0 0 0-5.154zM211.635 340.092a2.577 2.577 0 1 0 0 5.154 2.577 2.577 0 0 0 0-5.154zM235.368 340.092a2.577 2.577 0 1 0 .001 5.154 2.577 2.577 0 0 0-.001-5.154zM259.101 340.092a2.578 2.578 0 1 0 0 5.156 2.578 2.578 0 0 0 0-5.156zM282.836 340.092a2.578 2.578 0 1 0 0 5.156 2.578 2.578 0 0 0 0-5.156zM306.57 340.092a2.577 2.577 0 1 0-.003 5.154 2.577 2.577 0 0 0 .002-5.154zM330.303 340.092a2.577 2.577 0 1 0-.002 5.154 2.577 2.577 0 0 0 .002-5.154zM354.036 340.092a2.577 2.577 0 1 0 0 5.154 2.577 2.577 0 0 0 0-5.154zM377.77 340.092a2.577 2.577 0 1 0 0 5.154 2.577 2.577 0 0 0 0-5.154zM401.505 340.092a2.577 2.577 0 1 0 0 5.154 2.577 2.577 0 0 0 0-5.154zM425.238 340.092a2.577 2.577 0 1 0 0 5.154 2.577 2.577 0 0 0 0-5.154zM448.973 340.092a2.579 2.579 0 0 0-1.824 4.4 2.578 2.578 0 1 0 1.824-4.4zM472.704 340.092a2.577 2.577 0 1 0 0 5.155 2.577 2.577 0 0 0 0-5.155zM496.44 340.092a2.578 2.578 0 1 0-.001 5.156 2.578 2.578 0 0 0 .001-5.156zM520.172 340.092a2.577 2.577 0 1 0 0 5.154 2.577 2.577 0 0 0 0-5.154zM543.905 340.092a2.577 2.577 0 1 0 0 5.154 2.577 2.577 0 0 0 0-5.154zM21.764 361.348a2.577 2.577 0 1 0 0 5.154 2.577 2.577 0 0 0 0-5.154zM45.498 361.348a2.576 2.576 0 0 0-1.822 4.4 2.577 2.577 0 1 0 1.822-4.4zM69.231 361.348a2.577 2.577 0 1 0 0 5.154 2.577 2.577 0 0 0 0-5.154zM92.966 361.348a2.578 2.578 0 1 0-.002 5.156 2.578 2.578 0 0 0 .002-5.156zM116.7 361.348a2.577 2.577 0 1 0-.001 5.154 2.577 2.577 0 0 0 .002-5.154zM140.434 361.348a2.577 2.577 0 1 0-.002 5.154 2.577 2.577 0 0 0 .002-5.154zM164.166 361.348a2.577 2.577 0 1 0 0 5.154 2.577 2.577 0 0 0 0-5.154zM187.9 361.348a2.577 2.577 0 1 0 0 5.154 2.577 2.577 0 0 0 0-5.154zM211.635 361.348a2.577 2.577 0 1 0 0 5.154 2.577 2.577 0 0 0 0-5.154zM235.368 361.348a2.577 2.577 0 1 0 .002 5.154 2.577 2.577 0 0 0-.002-5.154zM259.101 361.348a2.578 2.578 0 1 0 0 5.156 2.578 2.578 0 0 0 0-5.156zM282.836 361.348a2.578 2.578 0 1 0 0 5.156 2.578 2.578 0 0 0 0-5.156zM306.57 361.348a2.577 2.577 0 1 0-.002 5.154 2.577 2.577 0 0 0 .002-5.154zM330.303 361.348a2.577 2.577 0 1 0-.001 5.154 2.577 2.577 0 0 0 .001-5.154zM354.036 361.348a2.577 2.577 0 1 0 0 5.154 2.577 2.577 0 0 0 0-5.154zM377.77 361.348a2.577 2.577 0 1 0 0 5.154 2.577 2.577 0 0 0 0-5.154zM401.505 361.348a2.577 2.577 0 1 0 0 5.154 2.577 2.577 0 0 0 0-5.154zM425.238 361.348a2.577 2.577 0 1 0 0 5.154 2.577 2.577 0 0 0 0-5.154zM448.973 361.348a2.578 2.578 0 1 0-.003 5.156 2.578 2.578 0 0 0 .002-5.156zM470.88 362.102a2.577 2.577 0 1 0 4.4 1.823 2.577 2.577 0 0 0-4.4-1.823zM496.44 361.348a2.577 2.577 0 1 0 2.577 2.577 2.577 2.577 0 0 0-2.577-2.577zM520.172 361.348a2.577 2.577 0 1 0 0 5.154 2.577 2.577 0 0 0 0-5.154zM543.905 361.348a2.577 2.577 0 1 0 0 5.154 2.577 2.577 0 0 0 0-5.154zM45.498 382.603a2.578 2.578 0 1 0 .003 5.156 2.578 2.578 0 0 0-.002-5.156zM69.231 382.603a2.578 2.578 0 1 0 .003 5.156 2.578 2.578 0 0 0-.002-5.156zM92.966 382.603a2.579 2.579 0 0 0-1.823 4.4 2.578 2.578 0 1 0 1.823-4.4zM116.7 382.603a2.579 2.579 0 0 0-1.822 4.4 2.577 2.577 0 1 0 1.823-4.4zM140.434 382.603a2.578 2.578 0 1 0 0 5.156 2.578 2.578 0 0 0 0-5.156zM164.166 382.603a2.578 2.578 0 1 0 .002 5.156 2.578 2.578 0 0 0-.002-5.156zM187.9 382.603a2.578 2.578 0 1 0 .002 5.156 2.578 2.578 0 0 0-.002-5.156zM211.635 382.603a2.578 2.578 0 1 0 .002 5.156 2.578 2.578 0 0 0-.002-5.156zM235.368 382.603a2.578 2.578 0 1 0 .004 5.156 2.578 2.578 0 0 0-.005-5.156zM259.101 382.603a2.578 2.578 0 1 0 0 5.154 2.578 2.578 0 0 0 0-5.154zM282.836 382.603a2.578 2.578 0 1 0 0 5.154 2.578 2.578 0 0 0 0-5.154zM306.57 382.603a2.578 2.578 0 1 0 0 5.156 2.578 2.578 0 0 0 0-5.156zM330.303 382.603a2.578 2.578 0 1 0 0 5.156 2.578 2.578 0 0 0 0-5.156zM354.036 382.603a2.578 2.578 0 1 0 .003 5.156 2.578 2.578 0 0 0-.002-5.156zM377.77 382.603a2.578 2.578 0 1 0 .003 5.156 2.578 2.578 0 0 0-.002-5.156zM401.505 382.603a2.578 2.578 0 1 0 .002 5.156 2.578 2.578 0 0 0-.002-5.156zM425.238 382.603a2.578 2.578 0 1 0 .003 5.156 2.578 2.578 0 0 0-.002-5.156zM448.973 382.603a2.578 2.578 0 1 0-.002 5.154 2.578 2.578 0 0 0 .002-5.154zM472.704 382.603a2.578 2.578 0 1 0-.002 5.156 2.578 2.578 0 0 0 .002-5.156zM496.44 382.603a2.579 2.579 0 0 0-1.823 4.4 2.577 2.577 0 1 0 1.824-4.4zM520.172 382.603a2.578 2.578 0 1 0 .002 5.156 2.578 2.578 0 0 0-.002-5.156zM45.498 403.86a2.577 2.577 0 1 0 0 5.154 2.577 2.577 0 0 0 0-5.154zM69.231 403.86a2.577 2.577 0 1 0 0 5.154 2.577 2.577 0 0 0 0-5.154z"/>
        <circle cx="92.966" cy="406.437" r="2.577"/>
        <path d="M116.7 403.86a2.578 2.578 0 1 0 0 5.156 2.578 2.578 0 0 0 0-5.156zM140.434 403.86a2.577 2.577 0 1 0-.003 5.154 2.577 2.577 0 0 0 .002-5.154z"/>
        <circle cx="164.167" cy="406.437" r="2.577"/>
        <circle cx="187.9" cy="406.437" r="2.577"/>
        <path d="M211.635 403.86a2.577 2.577 0 1 0 0 5.154 2.577 2.577 0 0 0 0-5.154z"/>
        <circle cx="235.368" cy="406.437" r="2.577"/>
        <circle cx="259.101" cy="406.437" r="2.577"/>
        <path d="M282.836 403.86a2.578 2.578 0 1 0 0 5.156 2.578 2.578 0 0 0 0-5.156z"/>
        <circle cx="306.568" cy="406.437" r="2.577"/>
        <circle cx="330.303" cy="406.437" r="2.577"/>
        <path d="M354.036 403.86a2.577 2.577 0 1 0 0 5.154 2.577 2.577 0 0 0 0-5.154z"/>
        <circle cx="377.771" cy="406.437" r="2.577"/>
        <circle cx="401.503" cy="406.437" r="2.577"/>
        <path d="M425.238 403.86a2.577 2.577 0 1 0 0 5.154 2.577 2.577 0 0 0 0-5.154zM448.973 403.86a2.579 2.579 0 0 0-1.824 4.4 2.578 2.578 0 1 0 1.824-4.4z"/>
        <circle cx="472.705" cy="406.437" r="2.577"/>
        <path d="M496.44 403.86a2.578 2.578 0 1 0-.001 5.156 2.578 2.578 0 0 0 .001-5.156zM520.172 403.86a2.577 2.577 0 1 0 0 5.154 2.577 2.577 0 0 0 0-5.154zM69.231 425.116a2.577 2.577 0 1 0 0 5.154 2.577 2.577 0 0 0 0-5.154z"/>
        <circle cx="92.966" cy="427.692" r="2.577"/>
        <path d="M116.7 425.116a2.577 2.577 0 1 0-.001 5.154 2.577 2.577 0 0 0 .002-5.154zM140.434 425.116a2.577 2.577 0 1 0-.002 5.154 2.577 2.577 0 0 0 .002-5.154z"/>
        <circle cx="164.167" cy="427.692" r="2.577"/>
        <circle cx="187.9" cy="427.692" r="2.577"/>
        <path d="M211.635 425.116a2.577 2.577 0 1 0 0 5.154 2.577 2.577 0 0 0 0-5.154z"/>
        <circle cx="235.368" cy="427.692" r="2.577"/>
        <circle cx="259.101" cy="427.692" r="2.577"/>
        <path d="M282.836 425.116a2.578 2.578 0 1 0 0 5.156 2.578 2.578 0 0 0 0-5.156z"/>
        <circle cx="306.568" cy="427.692" r="2.577"/>
        <circle cx="330.303" cy="427.692" r="2.577"/>
        <path d="M354.036 425.116a2.577 2.577 0 1 0 0 5.154 2.577 2.577 0 0 0 0-5.154z"/>
        <circle cx="377.771" cy="427.692" r="2.577"/>
        <circle cx="401.503" cy="427.692" r="2.577"/>
        <path d="M425.238 425.116a2.577 2.577 0 1 0 0 5.154 2.577 2.577 0 0 0 0-5.154zM448.973 425.116a2.578 2.578 0 1 0-.003 5.156 2.578 2.578 0 0 0 .002-5.156z"/>
        <circle cx="472.705" cy="427.692" r="2.577"/>
        <path d="M496.44 425.116a2.577 2.577 0 1 0 0 5.155 2.578 2.578 0 0 0 0-5.155zM69.231 446.371a2.578 2.578 0 1 0 .003 5.156 2.578 2.578 0 0 0-.002-5.156zM92.966 446.371a2.579 2.579 0 0 0-1.823 4.4 2.578 2.578 0 1 0 1.823-4.4zM116.7 446.371a2.579 2.579 0 0 0-1.822 4.4 2.577 2.577 0 1 0 1.823-4.4zM140.434 446.371a2.578 2.578 0 1 0 0 5.156 2.578 2.578 0 0 0 0-5.156zM164.166 446.371a2.578 2.578 0 1 0 .002 5.156 2.578 2.578 0 0 0-.002-5.156zM187.9 446.371a2.578 2.578 0 1 0 .002 5.156 2.578 2.578 0 0 0-.002-5.156zM211.635 446.371a2.578 2.578 0 1 0 .002 5.156 2.578 2.578 0 0 0-.002-5.156zM235.368 446.371a2.578 2.578 0 1 0 .004 5.156 2.578 2.578 0 0 0-.005-5.156zM259.101 446.371a2.578 2.578 0 1 0 0 5.154 2.578 2.578 0 0 0 0-5.154zM282.836 446.371a2.578 2.578 0 1 0 0 5.154 2.578 2.578 0 0 0 0-5.154zM306.57 446.371a2.578 2.578 0 1 0 0 5.156 2.578 2.578 0 0 0 0-5.156zM330.303 446.371a2.578 2.578 0 1 0 0 5.156 2.578 2.578 0 0 0 0-5.156zM354.036 446.371a2.578 2.578 0 1 0 .003 5.156 2.578 2.578 0 0 0-.002-5.156zM377.77 446.371a2.578 2.578 0 1 0 .003 5.156 2.578 2.578 0 0 0-.002-5.156zM401.505 446.371a2.578 2.578 0 1 0 .002 5.156 2.578 2.578 0 0 0-.002-5.156zM425.238 446.371a2.578 2.578 0 1 0 .003 5.156 2.578 2.578 0 0 0-.002-5.156zM448.973 446.371a2.578 2.578 0 1 0-.002 5.154 2.578 2.578 0 0 0 .002-5.154zM472.704 446.371a2.578 2.578 0 1 0-.002 5.156 2.578 2.578 0 0 0 .002-5.156zM496.44 446.371a2.579 2.579 0 0 0-1.823 4.4 2.577 2.577 0 1 0 1.824-4.4zM92.966 467.627a2.578 2.578 0 1 0-.002 5.156 2.578 2.578 0 0 0 .002-5.156zM116.7 467.627a2.577 2.577 0 1 0-.001 5.154 2.577 2.577 0 0 0 .002-5.154zM140.434 467.627a2.577 2.577 0 1 0-.002 5.154 2.577 2.577 0 0 0 .002-5.154zM164.166 467.627a2.577 2.577 0 1 0 0 5.154 2.577 2.577 0 0 0 0-5.154zM187.9 467.627a2.577 2.577 0 1 0 0 5.154 2.577 2.577 0 0 0 0-5.154zM211.635 467.627a2.577 2.577 0 1 0 0 5.154 2.577 2.577 0 0 0 0-5.154zM235.368 467.627a2.577 2.577 0 1 0 .002 5.154 2.577 2.577 0 0 0-.002-5.154zM259.101 467.627a2.578 2.578 0 1 0 0 5.156 2.578 2.578 0 0 0 0-5.156zM282.836 467.627a2.578 2.578 0 1 0 0 5.156 2.578 2.578 0 0 0 0-5.156zM306.57 467.627a2.577 2.577 0 1 0-.002 5.154 2.577 2.577 0 0 0 .002-5.154zM330.303 467.627a2.577 2.577 0 1 0-.001 5.154 2.577 2.577 0 0 0 .001-5.154zM354.036 467.627a2.577 2.577 0 1 0 0 5.154 2.577 2.577 0 0 0 0-5.154zM377.77 467.627a2.577 2.577 0 1 0 0 5.154 2.577 2.577 0 0 0 0-5.154zM425.238 467.627a2.577 2.577 0 1 0 0 5.154 2.577 2.577 0 0 0 0-5.154zM448.973 467.627a2.578 2.578 0 1 0-.003 5.156 2.578 2.578 0 0 0 .002-5.156zM472.704 467.627a2.577 2.577 0 1 0 2.577 2.577 2.577 2.577 0 0 0-2.577-2.577zM116.7 488.883a2.577 2.577 0 1 0-.001 5.154 2.577 2.577 0 0 0 .002-5.154zM140.434 488.883a2.577 2.577 0 1 0-.002 5.154 2.577 2.577 0 0 0 .002-5.154zM164.166 488.883a2.577 2.577 0 1 0 0 5.154 2.577 2.577 0 0 0 0-5.154zM187.9 488.883a2.577 2.577 0 1 0 0 5.154 2.577 2.577 0 0 0 0-5.154zM211.635 488.883a2.577 2.577 0 1 0 0 5.154 2.577 2.577 0 0 0 0-5.154zM235.368 488.883a2.577 2.577 0 1 0 .002 5.154 2.577 2.577 0 0 0-.002-5.154zM259.101 488.883a2.578 2.578 0 1 0 0 5.156 2.578 2.578 0 0 0 0-5.156zM282.836 488.883a2.578 2.578 0 1 0 0 5.156 2.578 2.578 0 0 0 0-5.156zM306.57 488.883a2.577 2.577 0 1 0-.002 5.154 2.577 2.577 0 0 0 .002-5.154zM330.303 488.883a2.577 2.577 0 1 0-.001 5.154 2.577 2.577 0 0 0 .001-5.154zM354.036 488.883a2.577 2.577 0 1 0 0 5.154 2.577 2.577 0 0 0 0-5.154zM377.77 488.883a2.577 2.577 0 1 0 0 5.154 2.577 2.577 0 0 0 0-5.154zM401.505 488.883a2.577 2.577 0 1 0 0 5.154 2.577 2.577 0 0 0 0-5.154zM425.238 488.883a2.577 2.577 0 1 0 0 5.154 2.577 2.577 0 0 0 0-5.154zM448.973 488.883a2.578 2.578 0 1 0-.003 5.156 2.578 2.578 0 0 0 .002-5.156zM140.435 510.138c-.825 0-1.598.398-2.08 1.067 1.464.873 2.931 1.742 4.413 2.589.159-.337.242-.705.244-1.078a2.577 2.577 0 0 0-2.577-2.578zM164.166 510.138a2.577 2.577 0 1 0 0 5.154 2.577 2.577 0 0 0 0-5.154zM187.9 510.138a2.577 2.577 0 1 0 0 5.154 2.577 2.577 0 0 0 0-5.154zM211.635 510.138a2.577 2.577 0 1 0 0 5.154 2.577 2.577 0 0 0 0-5.154zM235.368 510.138a2.577 2.577 0 1 0 .001 5.154 2.577 2.577 0 0 0-.001-5.154zM259.101 510.138a2.578 2.578 0 1 0 0 5.156 2.578 2.578 0 0 0 0-5.156zM282.836 510.138a2.578 2.578 0 1 0 0 5.156 2.578 2.578 0 0 0 0-5.156zM306.57 510.138a2.577 2.577 0 1 0-.003 5.154 2.577 2.577 0 0 0 .002-5.154zM330.303 510.138a2.577 2.577 0 1 0-.002 5.154 2.577 2.577 0 0 0 .002-5.154zM354.036 510.138a2.577 2.577 0 1 0 0 5.154 2.577 2.577 0 0 0 0-5.154zM377.77 510.138a2.577 2.577 0 1 0 0 5.154 2.577 2.577 0 0 0 0-5.154zM401.505 510.138a2.577 2.577 0 1 0 0 5.154 2.577 2.577 0 0 0 0-5.154zM425.238 510.138a2.577 2.577 0 0 0-2.577 2.578c.002.373.084.74.243 1.078a276.718 276.718 0 0 0 4.413-2.589 2.569 2.569 0 0 0-2.079-1.067zM187.9 531.395a2.569 2.569 0 0 0-2.543 2.239c1.57.578 3.154 1.127 4.736 1.677a2.551 2.551 0 0 0-.37-3.162 2.577 2.577 0 0 0-1.823-.754zM211.635 531.395a2.577 2.577 0 1 0 0 5.154 2.577 2.577 0 0 0 0-5.154zM235.368 531.395a2.577 2.577 0 1 0 .002 5.154 2.577 2.577 0 0 0-.002-5.154zM259.101 531.395a2.578 2.578 0 1 0 0 5.156 2.578 2.578 0 0 0 0-5.156zM282.836 531.395a2.578 2.578 0 1 0 0 5.156 2.578 2.578 0 0 0 0-5.156zM306.57 531.395a2.577 2.577 0 1 0-.002 5.154 2.577 2.577 0 0 0 .002-5.154zM330.303 531.395a2.577 2.577 0 1 0-.001 5.154 2.577 2.577 0 0 0 .001-5.154zM354.036 531.395a2.577 2.577 0 1 0 0 5.154 2.577 2.577 0 0 0 0-5.154zM377.77 531.395a2.577 2.577 0 0 0-2.577 2.577c.003.473.136.937.385 1.339 1.584-.55 3.167-1.1 4.737-1.677a2.57 2.57 0 0 0-2.544-2.239z"/>
    </g>
</svg>
