<svg xmlns="http://www.w3.org/2000/svg" xmlns:xlink="http://www.w3.org/1999/xlink" width="56" height="67" viewBox="0 0 56 67">
  <title>Dashboardepiserver — Bronze partner 2020</title>
  <path d="M53.12,2.34a2.26,2.26,0,0,1,.29.25A2.26,2.26,0,0,0,53.12,2.34Z" fill="#fff"/>
  <path d="M2.59,2.59a2.26,2.26,0,0,1,.29-.25A2.26,2.26,0,0,0,2.59,2.59Z" fill="#fff"/>
  <g>
    <g>
      <rect x="4" y="4" width="48" height="48" fill="#fff"/>
      <path d="M53.66,2.88a2.59,2.59,0,0,0-.54-.54A2.05,2.05,0,0,0,52,2H4a2.05,2.05,0,0,0-1.12.34,2.59,2.59,0,0,0-.54.54A2.05,2.05,0,0,0,2,4V62a2,2,0,0,0,2,2H52a2,2,0,0,0,2-2V4A2.05,2.05,0,0,0,53.66,2.88ZM4,52V4H52V52Z" fill="#cd7f32"/>
    </g>
  </g>
  <text transform="translate(16.75 59.95)" font-size="7" fill="#fff" font-family="SimplonNorm-Medium, Simplon Norm" font-weight="500"><tspan letter-spacing="0.02em">B</tspan><tspan x="4.48" y="0" letter-spacing="0.04em">r</tspan><tspan x="7.16" y="0" letter-spacing="0.02em">o</tspan><tspan x="11.09" y="0" letter-spacing="0.03em">n</tspan><tspan x="15.24" y="0" letter-spacing="0.03em">z</tspan><tspan x="18.58" y="0">e</tspan></text>
  <g>
    <path d="M27.68,14.33a1.07,1.07,0,1,1,2.13,0v2.77c0,.64-.26,1.24-1.12,1.24h-.27v1.11h.27a2.43,2.43,0,0,0,1.91-.95l4.58-4.6v4c0,1.13.66,1.6,1.42,1.6a1.69,1.69,0,0,0,1.3-.65L39.76,17,39,16.24,37.11,18.1c-.25.24-.36.28-.46.28a.4.4,0,0,1-.4-.44V12.66c0-.34-.17-.61-.53-.61-.15,0-.28,0-.54.31l-4.29,4.3V14.13A2.15,2.15,0,0,0,28.74,12a2.24,2.24,0,0,0-1.74.86l-5,5a1.2,1.2,0,0,1-.94.49A1.06,1.06,0,0,1,20,17.33l3-3a.59.59,0,0,0,.16-.47A2.16,2.16,0,0,0,21,12a2.26,2.26,0,0,0-1.77.87L15.4,16.74l.76.76,2.73-2.73v2.41A2.11,2.11,0,0,0,21,19.45a2.18,2.18,0,0,0,1.72-.83l3.85-3.85V22h1.07ZM20,15.81V14.13A1.06,1.06,0,0,1,21,13.07a1.11,1.11,0,0,1,1,.67Z" fill="#ff553e"/>
  </g>
  <g>
    <path d="M15.66,34.8h-.85V29.2h2.12a1.83,1.83,0,1,1,0,3.66H15.66Zm0-4.77v2h1.27a1,1,0,1,0,0-2Z" fill="#333858"/>
    <path d="M20.51,32h-.86a1.59,1.59,0,0,1,1.7-1.39,1.59,1.59,0,0,1,1.72,1.71V34.8h-.84v-.39a1.51,1.51,0,0,1-1.23.47c-.75,0-1.41-.38-1.41-1.22a1.22,1.22,0,0,1,.9-1.24,8,8,0,0,1,1.73-.24h0A.88.88,0,0,0,20.51,32Zm1.72,1.2v-.23a4.2,4.2,0,0,0-1.6.28.42.42,0,0,0-.2.38c0,.34.26.49.7.49S22.23,33.92,22.23,33.15Z" fill="#333858"/>
    <path d="M26,31.42a.81.81,0,0,0-.88.91V34.8h-.84V30.67h.84v.4a1.12,1.12,0,0,1,1-.47h.32v.82Z" fill="#333858"/>
    <path d="M28.5,33.6c0,.3.06.39.38.39h.64v.81h-.87a.86.86,0,0,1-1-1V31.47h-.58v-.8h.58v-.93h.84v.93h1v.8h-1Z" fill="#333858"/>
    <path d="M31.36,34.8h-.84V30.67h.84V31a1.11,1.11,0,0,1,1-.47A1.58,1.58,0,0,1,34,32.27V34.8h-.84V32.29a.88.88,0,1,0-1.75,0Z" fill="#333858"/>
    <path d="M37.6,33.49h.85a1.57,1.57,0,0,1-1.69,1.39A1.59,1.59,0,0,1,35,33.17v-.9a1.72,1.72,0,0,1,3.44,0V33h-2.6v.13a.82.82,0,0,0,.88.92A.8.8,0,0,0,37.6,33.49Zm-1.72-1.22h1.76a.82.82,0,0,0-.88-.9A.82.82,0,0,0,35.88,32.27Z" fill="#333858"/>
    <path d="M41.3,31.42a.81.81,0,0,0-.88.91V34.8h-.84V30.67h.84v.4a1.13,1.13,0,0,1,1-.47h.32v.82Z" fill="#333858"/>
    <path d="M21,38.54a1.18,1.18,0,0,1,1.29,1.24,1.66,1.66,0,0,1-.6,1.25l-1.12,1.16h1.72v.61H19.67v-.61l1.51-1.56a1.2,1.2,0,0,0,.44-.84.59.59,0,0,0-.66-.64.61.61,0,0,0-.66.69v0h-.63v-.06A1.2,1.2,0,0,1,21,38.54Z" fill="#333858"/>
    <path d="M24,39.83a1.29,1.29,0,0,1,2.58,0v1.75a1.29,1.29,0,0,1-2.58,0Zm1.95,0a.66.66,0,1,0-1.32,0v1.72a.66.66,0,1,0,1.32,0Z" fill="#333858"/>
    <path d="M29.64,38.54a1.18,1.18,0,0,1,1.29,1.24,1.69,1.69,0,0,1-.6,1.25L29.2,42.19h1.73v.61H28.35v-.61l1.5-1.56a1.22,1.22,0,0,0,.45-.84.59.59,0,0,0-.66-.64.61.61,0,0,0-.66.69v0h-.63v-.06A1.2,1.2,0,0,1,29.64,38.54Z" fill="#333858"/>
    <path d="M32.69,39.83a1.29,1.29,0,0,1,2.58,0v1.75a1.29,1.29,0,0,1-2.58,0Zm2,0a.66.66,0,1,0-1.32,0v1.72a.66.66,0,1,0,1.32,0Z" fill="#333858"/>
  </g>
</svg>
