<svg xmlns="http://www.w3.org/2000/svg" viewBox="0 0 313 39.97">
<defs>
<style>.cls-1,.cls-2,.cls-3{fill:red;}.cls-2{opacity:0.65;}.cls-3{opacity:0.6;}</style>
</defs><g id="Layer_2" data-name="Layer 2"><g id="Layer_1-2" data-name="Layer 1">
<polygon class="cls-1" points="191.75 0.29 187.46 8.74 187.42 8.74 187.42 8.74 203.83 8.74 203.83 39.68 211.9 39.68 211.9 8.74 224.67 8.74 229.77 0.29 191.75 0.29"/><polygon class="cls-2" points="237.03 0.29 199.01 0.29 194.72 8.74 189.03 8.74 211.08 8.74 211.08 39.68 219.15 39.68 219.15 8.74 231.93 8.74 237.03 0.29 237.03 0.29"/><path class="cls-1" d="M90.7,39.43,84.54,14.9l-10,22a7,7,0,0,1-1.66,2.29,3.57,3.57,0,0,1-2.43.81A3.71,3.71,0,0,1,68,39.16a6.1,6.1,0,0,1-1.65-2.29l-10-22-6.1,24.53H42.34l9.2-36C52.09,1.22,53.41.1,55.47.1a4.21,4.21,0,0,1,2.31.72,4.79,4.79,0,0,1,1.73,2.05l11.17,24.7L81.85,2.87A4.84,4.84,0,0,1,83.41.82,3.72,3.72,0,0,1,85.68.1c2,0,3.24,1.12,3.83,3.36l9.15,36Z"/><path class="cls-1" d="M281,13.56,281,39.68h-7.66l.09-34.61a5.44,5.44,0,0,1,1.08-3.58,3.67,3.67,0,0,1,3-1.3A3.85,3.85,0,0,1,279,.54a6.34,6.34,0,0,1,1.63,1.19L305.29,26V.3H313V34.84a5.41,5.41,0,0,1-1.11,3.66A3.7,3.7,0,0,1,309,39.77a4.61,4.61,0,0,1-3.31-1.59Z"/><polygon class="cls-2" points="134.18 39.39 125.55 24.09 116.91 39.39 134.18 39.39"/><path class="cls-1" d="M129.72,2.67A7,7,0,0,0,128.1.72a3.89,3.89,0,0,0-4.51,0,7,7,0,0,0-1.62,2L100.6,39.39h9.16l15.77-27.63,6.32,11,4.29,7.45h0l5.27,9.2h9.68Z"/><path class="cls-1" d="M38,19.06q-3.1-2.83-9.05-2.83H12.05a3.63,3.63,0,0,1-2.66-1,3.75,3.75,0,0,1-1-2.82,3.83,3.83,0,0,1,1-2.83,3.66,3.66,0,0,1,2.69-1H33.79L39.26.16v0H12.05A14.6,14.6,0,0,0,6.85,1,10.82,10.82,0,0,0,3.08,3.4,9.79,9.79,0,0,0,.78,7,12.88,12.88,0,0,0,0,11.56a12.41,12.41,0,0,0,.83,4.59,9.94,9.94,0,0,0,2.38,3.59A11,11,0,0,0,7,22.07a13.67,13.67,0,0,0,5,.85H29A4.85,4.85,0,0,1,32.33,24a4,4,0,0,1,1.19,3.1,3.85,3.85,0,0,1-1.19,3A4.8,4.8,0,0,1,29,31.18H6L.57,39.64v0H29a14.39,14.39,0,0,0,5.32-.9,10.69,10.69,0,0,0,3.81-2.47,10.07,10.07,0,0,0,2.27-3.75,14.43,14.43,0,0,0,.75-4.73Q41.12,21.89,38,19.06Z"/><path class="cls-1" d="M137.9,8.52c10.47,0,21-.21,31.44.1,3.8.11,7.1,2,7,6.4-.16,6.52-5.58,6.56-5.58,6.56H145.16l10.32,18V28.73l12.24-.09,7,10.79,10.1.13-8.64-11.35s9.25-3.67,8.53-13.41C184.09,6.6,179.26.17,171.22.17H132.86Z"/><polygon class="cls-1" points="265.21 31.92 248.15 31.92 248.15 24.45 248.13 24.45 248.13 24.05 248.07 24.05 248.13 18.15 248.13 15.82 248.15 15.82 248.15 8.34 265.47 8.2 271.06 0.07 240.48 0.22 240.49 39.86 270.5 39.9 270.5 39.89 265.21 31.92"/><polygon class="cls-2" points="262.14 23.97 262.22 16.43 247.51 16.43 247.49 18.36 247.49 23.97 262.14 23.97"/><polygon class="cls-1" points="247.49 24.59 247.49 18.98 247.43 24.59 247.49 24.59"/><polygon class="cls-3" points="247.49 24.59 247.49 18.98 247.43 24.59 247.49 24.59"/></g></g></svg>