<?xml version="1.0" encoding="UTF-8"?><svg id="Layer_2" xmlns="http://www.w3.org/2000/svg" viewBox="0 0 400.6 48.84"><defs><style>.cls-1{stroke-width:.6px;}.cls-1,.cls-2,.cls-3,.cls-4,.cls-5,.cls-6,.cls-7,.cls-8,.cls-9{fill:#fff;stroke:#fff;stroke-miterlimit:10;}.cls-2{opacity:.6;}.cls-2,.cls-4{stroke-width:.45px;}.cls-3,.cls-7{stroke-width:.2px;}.cls-5{isolation:isolate;opacity:.6;}.cls-5,.cls-9{stroke-width:.75px;}.cls-6{stroke-width:.4px;}.cls-7{opacity:.6;}.cls-8{stroke-width:.7px;}</style></defs><g id="Layer_1-2"><g><path class="cls-6" d="M175.98,10.57c14.03,0,28.07-.25,42.07,0,5.07,0,9.49,2.38,9.36,7.76,.37,4.05-2.83,7.62-7.15,7.96-.11,0-.22,.02-.33,.02h-34.26l13.8,21.84v-13.02h16.47l9.36,13.12h13.51l-11.56-13.8s12.22-4.42,11.33-16.24c-.86-9.99-7.31-17.79-18.09-17.79h-51.29l6.79,10.15Z"/><g><polygon class="cls-3" points="314.71 37.98 314.71 29.27 314.71 29.27 314.71 21.18 314.71 21.18 314.71 10.68 340.82 10.68 345.9 .42 304.45 .42 304.45 48.24 345.79 48.24 341.75 37.98 314.71 37.98"/><rect class="cls-7" x="314.71" y="21.18" width="25.39" height="8.09"/></g><path class="cls-1" d="M360.68,16.58v31.67h-9.49V6.32c0-1.84,.45-3.28,1.35-4.33,.9-1.05,2.12-1.57,3.65-1.57,.73,0,1.4,.14,2.02,.42,.62,.28,1.29,.76,2.02,1.44l30.51,29.29V.55h9.55V42.28c0,1.92-.46,3.4-1.38,4.43-.92,1.02-2.13,1.54-3.62,1.54s-2.82-.64-4.1-1.92l-30.51-29.74Z"/><g><path class="cls-8" d="M114.36,48.24l-7.86-30.04-12.39,26.28c-.49,1.04-1.19,1.97-2.04,2.74-.87,.67-1.95,1.01-3.05,.94-1.09,.05-2.17-.29-3.05-.94-.88-.74-1.58-1.68-2.04-2.74l-12.27-26.28-8.05,30.04h-9.78L65.72,4.5c.27-2.44,2.39-4.25,4.84-4.14,1.02,0,2.01,.3,2.86,.85,.93,.6,1.67,1.46,2.13,2.47l13.83,29.54L103.18,3.67c.41-.98,1.08-1.83,1.92-2.47,.83-.58,1.82-.87,2.83-.85,2.36-.04,4.38,1.68,4.72,4.02l11.58,43.75-9.87,.12Z"/><path class="cls-8" d="M114.61,48.24l-7.86-30.04-12.39,26.28c-.49,1.04-1.19,1.97-2.04,2.74-.87,.67-1.95,1.01-3.05,.94-1.09,.05-2.17-.29-3.05-.94-.88-.74-1.58-1.68-2.04-2.74l-12.27-26.28-8.05,30.04h-9.78L65.97,4.5c.27-2.44,2.39-4.25,4.84-4.14,1.02,0,2.01,.3,2.86,.85,.93,.6,1.67,1.46,2.13,2.47l13.83,29.54L103.43,3.67c.41-.98,1.08-1.83,1.92-2.47,.83-.58,1.82-.87,2.83-.85,2.36-.04,4.38,1.68,4.72,4.02l11.58,43.75-9.87,.12Z"/></g><polygon class="cls-5" points="171.34 48.24 160.49 29.65 149.68 48.24 171.34 48.24"/><path class="cls-9" d="M165.75,3.67c-.55-.91-1.25-1.71-2.07-2.38-.81-.59-1.8-.9-2.81-.86-1.01-.04-2,.26-2.81,.86-.83,.65-1.52,1.46-2.04,2.38l-26.81,44.58h11.49l19.89-33.55,7.91,13.31,5.37,9.05,6.61,11.18h12.14L165.75,3.67Z"/><path class="cls-1" d="M48.65,23.31c-2.63-2.28-6.47-3.42-11.51-3.42H15.63c-1.4,0-2.53-.39-3.39-1.18-.85-.79-1.28-1.93-1.28-3.42s.42-2.63,1.25-3.42c.83-.79,1.97-1.18,3.42-1.18h29.31L50.22,.42H15.63c-2.5,0-4.7,.35-6.61,1.05-1.91,.7-3.51,1.67-4.8,2.89-1.29,1.23-2.27,2.69-2.93,4.37-.66,1.69-.99,3.52-.99,5.49s.35,3.87,1.05,5.56c.7,1.69,1.71,3.14,3.03,4.34,1.32,1.21,2.91,2.15,4.77,2.83,2.05,.75,3.76,.89,4.77,.97,.64,.05,1.19,.06,1.58,.05h21.64c.38-.01,.92,0,1.55,.12,.64,.12,1.77,.34,2.72,1.19,1.49,1.34,1.51,3.32,1.51,3.75,0,1.54-.5,2.74-1.51,3.62-1.01,.88-2.43,1.32-4.28,1.32H7.06L1.06,48.24H37.14c2.59,0,4.85-.36,6.78-1.09,1.93-.72,3.54-1.72,4.83-2.99,1.29-1.27,2.26-2.78,2.89-4.54,.63-1.75,.95-3.66,.95-5.72,0-4.78-1.31-8.31-3.95-10.59Z"/><polygon class="cls-2" points="256.82 .42 252.31 10.68 269.86 10.68 269.86 48.24 280.13 48.24 280.13 10.68 294.49 10.68 299.15 .42 256.82 .42"/><polygon class="cls-4" points="246.22 .42 241.71 10.68 259.26 10.68 259.26 48.24 269.52 48.24 269.52 10.68 282.43 10.68 287.09 .42 246.22 .42"/></g></g></svg>