<?xml version="1.0" encoding="UTF-8"?>
<svg id="Layer_2" xmlns="http://www.w3.org/2000/svg" viewBox="0 0 150.93 19.01">
    <defs>
        <style>
            .cls-1{stroke-width:.6px;}.cls-1,.cls-2,.cls-3,.cls-4,.cls-5,.cls-6,.cls-7,.cls-8,.cls-9{fill:#eb2334;stroke:#e92535;stroke-miterlimit:10;}.cls-2,.cls-6{stroke-width:.2px;}.cls-3,.cls-4{stroke-width:.45px;}.cls-4{opacity:.65;}.cls-5{stroke-width:.4px;}.cls-6{opacity:.6;}.cls-7{stroke-width:.7px;}.cls-8,.cls-9{stroke-width:.75px;}.cls-9{isolation:isolate;opacity:.6;}
        </style>
    </defs>
    <g id="Layer_1-2">
        <g>
            <path class="cls-5"
                  d="M66.33,4.19c5.27,0,10.55-.09,15.81,0,1.91,0,3.57,.9,3.52,2.92,.14,1.52-1.06,2.86-2.69,2.99-.04,0-.08,0-.12,0h-12.88l5.19,8.21v-4.89h6.19l3.52,4.93h5.08l-4.35-5.19s4.59-1.66,4.26-6.1c-.32-3.76-2.75-6.68-6.8-6.68h-19.28l2.55,3.81Z"/>
            <g>
                <polygon class="cls-2"
                         points="118.47 14.49 118.47 11.22 118.47 11.22 118.47 8.18 118.47 8.18 118.47 4.23 128.28 4.23 130.19 .38 114.61 .38 114.61 18.35 130.15 18.35 128.63 14.49 118.47 14.49"/>
                <rect class="cls-6" x="118.47" y="8.18" width="9.54" height="3.04"/>
            </g>
            <path class="cls-1"
                  d="M135.74,6.45v11.9h-3.57V2.59c0-.69,.17-1.23,.51-1.63,.34-.39,.8-.59,1.37-.59,.27,0,.53,.05,.76,.16,.23,.1,.49,.29,.76,.54l11.47,11.01V.42h3.59v15.68c0,.72-.17,1.28-.52,1.66-.35,.39-.8,.58-1.36,.58s-1.06-.24-1.54-.72l-11.47-11.18Z"/>
            <g>
                <path class="cls-7"
                      d="M43.17,18.35l-2.96-11.29-4.66,9.88c-.18,.39-.45,.74-.77,1.03-.33,.25-.73,.38-1.14,.35-.41,.02-.82-.11-1.14-.35-.33-.28-.59-.63-.77-1.03l-4.61-9.88-3.03,11.29h-3.67L24.89,1.91c.1-.92,.9-1.6,1.82-1.56,.38,0,.76,.11,1.08,.32,.35,.23,.63,.55,.8,.93l5.2,11.1L38.97,1.6c.16-.37,.4-.69,.72-.93,.31-.22,.68-.33,1.06-.32,.89-.01,1.65,.63,1.77,1.51l4.35,16.44-3.71,.05Z"/>
                <path class="cls-7"
                      d="M43.26,18.35l-2.96-11.29-4.66,9.88c-.18,.39-.45,.74-.77,1.03-.33,.25-.73,.38-1.14,.35-.41,.02-.82-.11-1.14-.35-.33-.28-.59-.63-.77-1.03l-4.61-9.88-3.03,11.29h-3.67L24.98,1.91c.1-.92,.9-1.6,1.82-1.56,.38,0,.76,.11,1.08,.32,.35,.23,.63,.55,.8,.93l5.2,11.1L39.06,1.6c.16-.37,.4-.69,.72-.93,.31-.22,.68-.33,1.06-.32,.89-.01,1.65,.63,1.77,1.51l4.35,16.44-3.71,.05Z"/>
            </g>
            <g>
                <polygon class="cls-9" points="64.58 18.35 60.51 11.36 56.44 18.35 64.58 18.35"/>
                <path class="cls-8"
                      d="M62.48,1.6c-.21-.34-.47-.64-.78-.89-.31-.22-.68-.34-1.06-.33-.38-.02-.75,.1-1.06,.33-.31,.25-.57,.55-.77,.89l-10.08,16.75h4.32l7.48-12.61,2.97,5,2.02,3.4,2.48,4.2h4.56L62.48,1.6Z"/>
            </g>
            <path class="cls-1"
                  d="M18.47,8.98c-.99-.86-2.43-1.29-4.33-1.29H6.06c-.53,0-.95-.15-1.27-.44-.32-.3-.48-.73-.48-1.29s.16-.99,.47-1.29c.31-.3,.74-.44,1.29-.44h11.01l1.99-3.86H6.06c-.94,0-1.77,.13-2.48,.4-.72,.26-1.32,.63-1.8,1.09-.49,.46-.85,1.01-1.1,1.64-.25,.63-.37,1.32-.37,2.06s.13,1.45,.4,2.09c.26,.63,.64,1.18,1.14,1.63,.49,.45,1.09,.81,1.79,1.06,.77,.28,1.41,.34,1.79,.36,.24,.02,.45,.02,.59,.02H14.14c.14,0,.35,0,.58,.05,.24,.05,.67,.13,1.02,.45,.56,.5,.57,1.25,.57,1.41,0,.58-.19,1.03-.57,1.36-.38,.33-.91,.49-1.61,.49H2.84l-2.26,3.86H14.14c.97,0,1.82-.14,2.55-.41s1.33-.65,1.82-1.12c.49-.48,.85-1.05,1.09-1.71,.24-.66,.36-1.38,.36-2.15,0-1.8-.49-3.12-1.48-3.98Z"/>
            <polygon class="cls-4"
                     points="96.71 .38 95.01 4.23 101.61 4.23 101.61 18.35 105.47 18.35 105.47 4.23 110.87 4.23 112.62 .38 96.71 .38"/>
            <polygon class="cls-3"
                     points="92.73 .38 91.03 4.23 97.63 4.23 97.63 18.35 101.48 18.35 101.48 4.23 106.33 4.23 108.08 .38 92.73 .38"/>
        </g>
    </g>
</svg>