<svg xmlns="http://www.w3.org/2000/svg" viewBox="0 0 75.32 17.52"><defs><style>.cls-1{fill:#c4282f;}.cls-2{fill:#363392;stroke:#363392;stroke-miterlimit:10;stroke-width:0.1px;}</style></defs><g id="Layer_2" data-name="Layer 2"><g id="Layer_1-2" data-name="Layer 1"><path class="cls-1" d="M.21,13.66c.63.94,1.91,2.14,3,2.14.57,0,1-.32,1-.78,0-.86-1.34-1.59-1.91-2A5.36,5.36,0,0,1,0,9c0-2.4,2.33-3.51,4.68-3.51A14.21,14.21,0,0,1,7.81,6L8,9,7.6,8.6A4.47,4.47,0,0,0,5.14,7.21a.88.88,0,0,0-1,.84,1.23,1.23,0,0,0,.5.88l1.45,1.18c1.32,1.05,2.21,2,2.21,3.71,0,2.78-2.36,3.7-4.75,3.7A11.78,11.78,0,0,1,.21,17Z"/><path class="cls-1" d="M9.09,8.74a8.4,8.4,0,0,0-.48-2.56h.48a8.56,8.56,0,0,0,4.35-.94V7.69a3.7,3.7,0,0,1,2.94-2.16,3.15,3.15,0,0,1,3.21,2.18,3.35,3.35,0,0,1,3.07-2.18A3.13,3.13,0,0,1,26,8.91v5.92a6.52,6.52,0,0,0,.13,1.58,1.81,1.81,0,0,0,.57.88H21a4.28,4.28,0,0,0,.67-2.48V8.68c0-.53-.38-.76-.86-.76s-.95.38-1.16,1v5.84A3.82,3.82,0,0,0,20.07,17l.15.25H14.76a3.47,3.47,0,0,0,.67-2.48V8.74A.79.79,0,0,0,14.61,8a1.28,1.28,0,0,0-1.17.94v5.92A3.5,3.5,0,0,0,14,17l.19.25H8.42a3.58,3.58,0,0,0,.67-2.48Z"/><path class="cls-1" d="M33.09,17.29a2.18,2.18,0,0,1-.35-1.16A3.45,3.45,0,0,1,30,17.52a3.05,3.05,0,0,1-3.36-3.07c0-1.89,1.32-2.89,3-3.57l2.48-1A.93.93,0,0,0,32.67,9c0-1-.92-1.25-1.7-1.25a7.71,7.71,0,0,0-3.31,1.17L27.47,9l.75-2.94A14.75,14.75,0,0,1,32,5.53c2.25,0,5,.67,5,3.34v5.94a7.17,7.17,0,0,0,.12,1.55,2.16,2.16,0,0,0,.55.93Zm-.44-6.09a2.5,2.5,0,0,0-1.95,2.39,1.46,1.46,0,0,0,1.43,1.66,1.62,1.62,0,0,0,.52-.08Z"/><path class="cls-1" d="M38.41,8.74a7.94,7.94,0,0,0-.48-2.56h.48a9.19,9.19,0,0,0,4.34-.94V7.8a3.4,3.4,0,0,1,2.84-2.27,1.63,1.63,0,0,1,1.2.53c-.3,1.15-.59,2.33-.89,3.48a3.15,3.15,0,0,0-2.07-1.07c-.72,0-1.08.44-1.08,1.3v5.06a3.33,3.33,0,0,0,.68,2.46H37.72a4.06,4.06,0,0,0,.69-2.48Z"/><path class="cls-1" d="M51.18,13.89c0,1.11.23,1.51,1.36,1.51A3.34,3.34,0,0,0,54,15.08l.55-.31-.28.54A17.44,17.44,0,0,0,53.63,17l-.54.15a9.83,9.83,0,0,1-2.54.38c-1.94,0-3.72-.76-3.72-2.88v-7H45a28.77,28.77,0,0,0,5-3.72l.15-.12a3.49,3.49,0,0,0,.27-.26l.74-.75v3h2.75a11.45,11.45,0,0,0-.66,1.83H51.18Z"/><path class="cls-1" d="M59.37,13.89c0,1.11.23,1.51,1.36,1.51a3.34,3.34,0,0,0,1.47-.32l.55-.31-.28.54A17.44,17.44,0,0,0,61.82,17l-.54.15a9.83,9.83,0,0,1-2.54.38c-1.94,0-3.72-.76-3.72-2.88v-7H53.17a28.77,28.77,0,0,0,5-3.72l.15-.12a3.49,3.49,0,0,0,.27-.26l.74-.75v3h2.75a11.45,11.45,0,0,0-.66,1.83H59.37Z"/><path class="cls-2" d="M67.7,7.41H63.89a1.75,1.75,0,0,0,.24-1V1a1.91,1.91,0,0,0-.24-.94h4l-.52,1.22a4.06,4.06,0,0,0-1.25-.18h-.28V3.24h1.76l-.57,1a3.22,3.22,0,0,0-1.19-.16V6.35h.28a10.14,10.14,0,0,0,2.14-.18Z"/><path class="cls-2" d="M68.86,1a2,2,0,0,0-.24-.93h1.65c0,.1,0,.19,0,.27a.87.87,0,0,0,.16.54l3,4.43V1a1.83,1.83,0,0,0-.22-.92h2A2,2,0,0,0,75,1V6.33a2.7,2.7,0,0,0,.18,1.08H73.33L70.4,3.13V6.44a2,2,0,0,0,.24,1h-2a2.05,2.05,0,0,0,.21-1Z"/></g></g></svg>