<svg xmlns="http://www.w3.org/2000/svg" viewBox="0 0 79.9 15.39"><defs><style>.cls-1{fill:#ed1b31;stroke-width:0.2px;}.cls-1,.cls-4{stroke:#ed1b31;stroke-miterlimit:10;}.cls-2{fill:#5e2d86;}.cls-3{fill:#fff;}.cls-4{fill:#ec1f36;stroke-width:0.2px;}</style></defs><g id="Layer_2" data-name="Layer 2"><g id="Layer_1-2" data-name="Layer 1"><path class="cls-1" d="M55.86,8.94V1.74H52.55V.22h8.14V1.74H57.38v7.2Z"/><path class="cls-1" d="M61.7,8.94V.22h7.78V1.74H63.21V7.42H69.5V8.94Zm2.63-3.79V3.87h4.83V5.15Z"/><path class="cls-1" d="M72.22,2.56V8.94H70.77V1c0-.56.3-.91.78-.91a.9.9,0,0,1,.65.31l6.15,6.11V.15H79.8v8c0,.57-.31.91-.75.91a1,1,0,0,1-.7-.33Z"/><rect class="cls-2" x="0.1" y="10.22" width="79.71" height="5.18"/><path class="cls-3" d="M4.57,11.68a.61.61,0,0,0-.28-.25,1,1,0,0,0-.37-.08.84.84,0,0,0-.27,0,.87.87,0,0,0-.24.1.55.55,0,0,0-.18.19.54.54,0,0,0-.06.27.66.66,0,0,0,0,.21.52.52,0,0,0,.13.17.92.92,0,0,0,.23.14l.35.13.4.14a1.25,1.25,0,0,1,.34.19.81.81,0,0,1,.24.28,1.12,1.12,0,0,1,.08.44,1,1,0,0,1-.1.46,1.08,1.08,0,0,1-.28.32,1.34,1.34,0,0,1-.4.19,1.76,1.76,0,0,1-.46.06,1.55,1.55,0,0,1-.31,0,1,1,0,0,1-.3-.08l-.27-.15a.93.93,0,0,1-.21-.23L3,13.9a.65.65,0,0,0,.32.29.91.91,0,0,0,.43.1,1,1,0,0,0,.28,0,.55.55,0,0,0,.24-.12.47.47,0,0,0,.18-.19.44.44,0,0,0,.07-.26.68.68,0,0,0,0-.27.58.58,0,0,0-.17-.18A1.57,1.57,0,0,0,4,13.1L3.6,13a2.32,2.32,0,0,1-.35-.14A1.15,1.15,0,0,1,3,12.63a.8.8,0,0,1-.18-.27A.89.89,0,0,1,2.72,12a.87.87,0,0,1,.1-.44.76.76,0,0,1,.27-.32A1,1,0,0,1,3.47,11,1.41,1.41,0,0,1,3.92,11a1.59,1.59,0,0,1,.55.09,1.07,1.07,0,0,1,.44.33Z"/><path class="cls-3" d="M14,14.68a1.81,1.81,0,0,1-.74-.14,1.65,1.65,0,0,1-.58-.39,1.6,1.6,0,0,1-.39-.59,2,2,0,0,1-.14-.74,2,2,0,0,1,.14-.74,1.6,1.6,0,0,1,.39-.59,1.8,1.8,0,0,1,.58-.39A2,2,0,0,1,14,11a2,2,0,0,1,.75.14,1.8,1.8,0,0,1,.58.39,1.74,1.74,0,0,1,.39.59,2,2,0,0,1,.13.74,2,2,0,0,1-.13.74,1.74,1.74,0,0,1-.39.59,1.65,1.65,0,0,1-.58.39A1.86,1.86,0,0,1,14,14.68Zm0-.39a1.48,1.48,0,0,0,.57-.11,1.28,1.28,0,0,0,.44-.32,1.33,1.33,0,0,0,.29-.47,1.48,1.48,0,0,0,.1-.57,1.56,1.56,0,0,0-.1-.57,1.42,1.42,0,0,0-.29-.47,1.25,1.25,0,0,0-.44-.31,1.39,1.39,0,0,0-1.13,0,1.29,1.29,0,0,0-.45.31,1.4,1.4,0,0,0-.28.47,1.56,1.56,0,0,0-.11.57,1.48,1.48,0,0,0,.11.57,1.33,1.33,0,0,0,.73.79A1.47,1.47,0,0,0,14,14.29Z"/><path class="cls-3" d="M23.26,11.05h2.19v.39H23.68v1.17h1.65V13H23.68v1.59h-.42Z"/><path class="cls-3" d="M35.12,11.44H34v3.15h-.42V11.44H32.36v-.39h2.76Z"/><path class="cls-3" d="M41.92,11.05h.46L43.19,14h0l.87-2.94h.47L45.4,14h0l.82-2.94h.44l-1,3.54h-.45l-.88-3h0l-.88,3H43Z"/><path class="cls-3" d="M55,11.05h.4l1.5,3.54h-.49l-.36-.87H54.28l-.36.87h-.48Zm.19.54h0l-.73,1.74h1.44Z"/><path class="cls-3" d="M64.08,11.05H65a4.07,4.07,0,0,1,.5,0,1.64,1.64,0,0,1,.46.13.89.89,0,0,1,.32.29.93.93,0,0,1,.13.53.85.85,0,0,1-.24.63,1.07,1.07,0,0,1-.65.3l1,1.63H66L65,13H64.5v1.59h-.42Zm.42,1.56h.74a1.15,1.15,0,0,0,.34-.06.64.64,0,0,0,.27-.18A.52.52,0,0,0,66,12a.57.57,0,0,0-.08-.31.66.66,0,0,0-.19-.18,1.29,1.29,0,0,0-.28-.08l-.31,0H64.5Z"/><path class="cls-3" d="M73.85,11.05h2.22v.39h-1.8v1.11H76v.39H74.27V14.2h1.89v.39H73.85Z"/><path class="cls-4" d="M6.77,3.87h-4A1,1,0,0,1,1.68,2.81,1,1,0,0,1,2.79,1.74H9.05V.22H2.79A2.4,2.4,0,0,0,.1,2.67,2.43,2.43,0,0,0,2.76,5.15h4C7.58,5.15,8,5.53,8,6.28A1.12,1.12,0,0,1,6.77,7.42H.23V8.94H6.77A2.43,2.43,0,0,0,9.48,6.38C9.48,4.69,8.53,3.87,6.77,3.87Z"/><path class="cls-4" d="M19.86.11a.77.77,0,0,0-.73.52L16.44,6.79,13.75.63A.81.81,0,0,0,13,.11a.73.73,0,0,0-.76.63L10,8.94h1.5l1.66-6.13,2.46,5.67a.81.81,0,0,0,1.56,0l2.47-5.67,1.67,6.13h1.51L20.59.74A.73.73,0,0,0,19.86.11Z"/><path class="cls-4" d="M29,.1a.85.85,0,0,0-.75.49l-5,8.35H25l4-6.69,1.94,3.26H28.21l-.72,1.23h4.13l1.31,2.2h1.83l-5-8.35A.84.84,0,0,0,29,.1Z"/><path class="cls-4" d="M45.13,3.4A2.94,2.94,0,0,0,42,.22H35.7V8.94h1.51V1.74H42a1.5,1.5,0,0,1,1.67,1.68A1.53,1.53,0,0,1,42,5.17H38.33V6.52h3.26L43.8,8.94H46L43.33,6.29A2.86,2.86,0,0,0,45.13,3.4Z"/><polygon class="cls-4" points="46.05 0.22 46.05 1.74 49.36 1.74 49.36 8.94 50.88 8.94 50.88 1.74 52.36 1.74 52.36 0.22 46.05 0.22"/></g></g></svg>