<svg xmlns="http://www.w3.org/2000/svg" viewBox="0 0 126.45 15.71"><defs><style>.cls-1,.cls-2,.cls-3{fill:#fff;}.cls-2{opacity:0.6;}.cls-3{opacity:0.6;}</style></defs><g id="Layer_2" data-name="Layer 2"><g id="Layer_1-2" data-name="Layer 1"><polygon class="cls-1" points="93.41 0.05 77.98 0.05 76.24 3.37 73.93 3.37 82.88 3.37 82.88 15.52 86.16 15.52 86.16 3.37 91.34 3.37 93.41 0.05 93.41 0.05"/><polygon class="cls-2" points="96.36 0.05 80.92 0.05 79.18 3.37 76.87 3.37 85.83 3.37 85.83 15.52 89.1 15.52 89.1 3.37 94.29 3.37 96.36 0.05 96.36 0.05"/><path class="cls-1" d="M36.82,15.49l-2.5-9.63-4.07,8.63a2.85,2.85,0,0,1-.67.9,1.49,1.49,0,0,1-1,.31,1.56,1.56,0,0,1-1-.31,2.47,2.47,0,0,1-.67-.9L22.88,5.86,20.4,15.49H17.19L20.93,1.36A1.53,1.53,0,0,1,22.52,0a1.74,1.74,0,0,1,.94.28,1.92,1.92,0,0,1,.7.81l4.54,9.7,4.53-9.7a2,2,0,0,1,.63-.81A1.57,1.57,0,0,1,34.79,0a1.54,1.54,0,0,1,1.55,1.32l3.72,14.13Z"/><path class="cls-1" d="M113.47,5.42l0,10.26h-3.11l0-13.6A2.11,2.11,0,0,1,110.8.67,1.49,1.49,0,0,1,112,.16a1.59,1.59,0,0,1,.66.14,2.64,2.64,0,0,1,.66.47l10,9.52V.2h3.13V13.78a2,2,0,0,1-.46,1.43,1.49,1.49,0,0,1-1.18.5,1.88,1.88,0,0,1-1.35-.62Z"/><polygon class="cls-3" points="54.48 15.48 50.97 9.46 47.47 15.48 54.48 15.48"/><path class="cls-1" d="M52.67,1.05A3,3,0,0,0,52,.28,1.46,1.46,0,0,0,51.09,0a1.43,1.43,0,0,0-.91.28,2.65,2.65,0,0,0-.66.77L40.84,15.48h3.72L51,4.62l2.56,4.31,1.74,2.93h0l2.14,3.62h3.93Z"/><path class="cls-1" d="M15.44,7.49a5.41,5.41,0,0,0-3.68-1.11H4.89A1.49,1.49,0,0,1,3.81,6,1.44,1.44,0,0,1,3.4,4.88a1.51,1.51,0,0,1,.4-1.11,1.54,1.54,0,0,1,1.09-.38h8.83L15.94.06h-11A6,6,0,0,0,2.78.4a4.35,4.35,0,0,0-1.53.94A4.05,4.05,0,0,0,.31,2.76,4.93,4.93,0,0,0,0,4.54,4.63,4.63,0,0,0,.34,6.35a4,4,0,0,0,1,1.41,4.53,4.53,0,0,0,1.52.91,5.88,5.88,0,0,0,2,.33h6.91a2,2,0,0,1,1.36.43,1.53,1.53,0,0,1,.49,1.22,1.45,1.45,0,0,1-.49,1.17,2,2,0,0,1-1.36.43H2.45L.23,15.58H11.76a6.11,6.11,0,0,0,2.16-.35,4.5,4.5,0,0,0,1.55-1,4,4,0,0,0,.92-1.48,5.48,5.48,0,0,0,.31-1.85A4.36,4.36,0,0,0,15.44,7.49Z"/><path class="cls-1" d="M56,3.35c4.26,0,8.52-.08,12.77,0,1.54,0,2.88.77,2.84,2.51a2.38,2.38,0,0,1-2.27,2.58H58.94l4.19,7.06V11.29l5,0,2.84,4.24,4.1,0-3.51-4.46S75.27,9.64,75,5.82C74.74,2.59,72.78.07,69.51.07H53.94Z"/><polygon class="cls-1" points="107.67 12.54 100.75 12.54 100.75 9.61 100.74 9.61 100.74 9.45 100.71 9.45 100.74 7.13 100.74 6.22 100.75 6.22 100.75 3.28 107.78 3.22 110.05 0.03 97.63 0.09 97.64 15.66 109.82 15.68 109.82 15.68 107.67 12.54"/><polygon class="cls-1" points="106.47 15.52 106.47 15.52 106.47 15.52 106.47 15.52"/><polygon class="cls-2" points="106.43 9.66 106.46 6.7 100.49 6.7 100.48 7.46 100.48 9.66 106.43 9.66"/><polygon class="cls-1" points="100.48 9.66 100.48 7.46 100.45 9.66 100.48 9.66"/><polygon class="cls-2" points="100.48 9.66 100.48 7.46 100.45 9.66 100.48 9.66"/></g></g></svg>