<svg xmlns="http://www.w3.org/2000/svg" xmlns:xlink="http://www.w3.org/1999/xlink" viewBox="0 0 64 64" xml:space="preserve"><path fill="none" stroke="#fff" stroke-width="2" stroke-miterlimit="10" d="M32.001,0.887c17.184,0,31.113,13.929,31.112,31.113 C63.114,49.185,49.184,63.115,32,63.113C14.815,63.114,0.887,49.185,0.888,32.001C0.885,14.816,14.815,0.887,32.001,0.887z" style="stroke-dasharray:196,198;stroke-dashoffset:0"/><path fill="none" stroke="#fff" stroke-width="2" stroke-miterlimit="10" d="M10,32c0-5.63,2.148-11.26,6.444-15.556 c8.591-8.593,22.521-8.593,31.112,0C51.852,20.74,54,26.37,54,32" style="stroke-dasharray:70,72;stroke-dashoffset:0"/><path fill="none" stroke="#fff" stroke-width="2" stroke-miterlimit="10" d="M24,26L30.333,33.333" style="stroke-dasharray:10,12;stroke-dashoffset:0"/><path fill="none" stroke="#fff" stroke-width="2" stroke-miterlimit="10" d="M30,35A2,2 0,1,1 34,35A2,2 0,1,1 30,35" style="stroke-dasharray:13,15;stroke-dashoffset:0"/></svg>