<svg xmlns="http://www.w3.org/2000/svg" xmlns:xlink="http://www.w3.org/1999/xlink" viewBox="0 0 64 64" xml:space="preserve"><path fill="none" stroke="#fff" stroke-width="2" stroke-miterlimit="10" d="M36,34L41,39" style="stroke-dasharray:8,10;stroke-dashoffset:0"/><path transform="matrix(-0.7071 0.7071 -0.7071 -0.7071 120.5036 47.0858)" fill="none" stroke="#fff" stroke-width="2" stroke-miterlimit="10" d="M46.257 35.065 L54.742 35.065 L54.742 61.935 L46.257 61.935 Z" style="stroke-dasharray:71,73;stroke-dashoffset:0"/><path fill="none" stroke="#fff" stroke-width="2" stroke-miterlimit="10" d="M12,16L18,10L8,4L6,6Z" style="stroke-dasharray:35,37;stroke-dashoffset:0"/><path fill="none" stroke="#fff" stroke-width="2" stroke-miterlimit="10" d="M28,26L15,13" style="stroke-dasharray:19,21;stroke-dashoffset:0"/><path fill="none" stroke="#fff" stroke-width="2" stroke-miterlimit="10" d="M58,12.5l-8,3.75l-4-4.125l3.5-8.062l0,0 C39.5,4.062,37,9,37,14v4L3.5,52l-1.75,6l2.125,2l6.062-1.5L44,25h4C53,25,58,22.5,58,12.5L58,12.5z" style="stroke-dasharray:179,181;stroke-dashoffset:0"/></svg>