<svg xmlns="http://www.w3.org/2000/svg" viewBox="0 0 100 100"><defs><style>.cls-1{fill:#ed1b31;}.cls-2,.cls-3{fill:#fff;}.cls-2{opacity:0.65;}</style></defs><g id="Layer_2" data-name="Layer 2"><g id="Layer_1-2" data-name="Layer 1"><rect class="cls-1" width="100" height="100"/><polygon class="cls-2" points="41.9 68.63 33.7 54.09 25.49 68.63 41.9 68.63"/><path class="cls-3" d="M37.67,33.74a6.71,6.71,0,0,0-1.55-1.85,3.69,3.69,0,0,0-4.27,0,6.71,6.71,0,0,0-1.55,1.85L10,68.63h8.7l15-26.25,6,10.43,4.09,7.09h0l5,8.73H58Z"/><path class="cls-3" d="M45.43,39.3c10,0,19.94-.2,29.88.1,3.61.1,6.75,1.88,6.65,6.07-.16,6.2-5.31,6.24-5.31,6.24H52.34l9.81,17.08V58.51l11.63-.09L80.4,68.67l9.6.12L81.8,58s8.78-3.49,8.1-12.74c-.58-7.79-5.16-13.9-12.8-13.9H40.65Z"/></g></g></svg>