<svg xmlns="http://www.w3.org/2000/svg" viewBox="0 0 62.09 59.34"><defs><style>.cls-1{fill:#fff;stroke:#c12643;stroke-width:0.7px;}.cls-1,.cls-2,.cls-3{stroke-miterlimit:10;}.cls-2,.cls-3{fill:#c12643;stroke:#fff;}.cls-2{stroke-width:0.25px;opacity:0.6;}.cls-3{stroke-width:0.2px;}</style></defs><g id="Layer_2" data-name="Layer 2"><g id="Layer_1-2" data-name="Layer 1"><rect class="cls-1" x="0.35" y="0.35" width="61.39" height="58.64"/><polygon class="cls-2" points="29.36 35.64 23.8 27.96 18.23 35.64 29.36 35.64"/><path class="cls-3" d="M31.26,21.3,28.53,17a.12.12,0,0,1,.09-.18h22a8.88,8.88,0,0,1,3.85.6A6.33,6.33,0,0,1,57.92,21a7.25,7.25,0,0,1,.36,1.31c.82,4.67-3.73,7.47-4.51,7.91a.11.11,0,0,0,0,.17l5,5.31a.12.12,0,0,1-.08.19l-6.35-.07a.12.12,0,0,1-.08,0L48.55,31.1a.1.1,0,0,0-.08,0h-7.8a.11.11,0,0,0-.1.11v4.67l-6.22-9.33a.11.11,0,0,1,.08-.17H51.37c1.26,0,2.19-1.67,2.08-2.93a2.55,2.55,0,0,0-2.28-2.07c-1.13-.09-2.32,0-3.48,0H31.35A.11.11,0,0,1,31.26,21.3Z"/><path class="cls-3" d="M3.29,45.42,10,35.18l9.75-14.93c.85-1.3,1.63-3,3.14-3.34a3.75,3.75,0,0,1,3.43,1.36c1.35,1.45,11.13,17.54,11.13,17.54h-5.8L23.75,23.2,9.28,45.42Z"/></g></g></svg>