<?xml version="1.0" encoding="UTF-8"?><svg xmlns="http://www.w3.org/2000/svg" viewBox="0 0 146.76 150.99"><defs><style>.d{fill:#ed1b35;}.e{fill:#fff;stroke:#fff;stroke-miterlimit:10;stroke-width:3px;}</style></defs><g id="a"/><g id="b"><g id="c"><rect class="d" y="0" width="146.76" height="150.99"/><path class="e" d="M17.31,106.99v-13.77H113.97c1.5,0,2.77-.52,3.82-1.57,1.05-1.05,1.58-2.32,1.58-3.83s-.53-2.86-1.58-3.91c-1.05-1.05-2.33-1.58-3.82-1.58H36.48c-2.64,0-5.12-.49-7.42-1.48-2.31-.99-4.34-2.35-6.08-4.09-1.74-1.74-3.12-3.78-4.14-6.12-1.02-2.34-1.53-4.83-1.53-7.47s.51-5.13,1.53-7.47c1.02-2.34,2.4-4.38,4.14-6.12,1.74-1.74,3.76-3.1,6.08-4.09,2.31-.99,4.78-1.48,7.42-1.48h93.15v13.77H36.48c-1.5,0-2.78,.53-3.82,1.57-1.05,1.05-1.58,2.33-1.58,3.82s.52,2.78,1.58,3.82c1.05,1.05,2.32,1.57,3.82,1.57H113.97c2.64,0,5.13,.51,7.47,1.53,2.34,1.02,4.38,2.4,6.12,4.14,1.74,1.74,3.1,3.78,4.1,6.12,.99,2.34,1.48,4.83,1.48,7.47s-.5,5.12-1.48,7.43c-.99,2.31-2.36,4.34-4.1,6.07-1.74,1.74-3.78,3.12-6.12,4.14-2.34,1.02-4.83,1.53-7.47,1.53H17.31Z"/></g></g></svg>