<?xml version="1.0" encoding="UTF-8"?><svg xmlns="http://www.w3.org/2000/svg" viewBox="0 0 6638.74 741.66"><defs><style>.d{fill:#ed1b35;}.e{fill:#fff;stroke:#fff;stroke-miterlimit:10;stroke-width:27px;}</style></defs><g id="a"/><g id="b"><g id="c"><rect class="d" width="6638.74" height="650.43"/><text/><g><path class="e" d="M140.59,507.82v-76.5H677.59c8.33,0,15.41-2.91,21.25-8.75s8.75-12.91,8.75-21.25-2.92-15.91-8.75-21.75c-5.84-5.83-12.92-8.75-21.25-8.75H247.09c-14.67,0-28.42-2.75-41.25-8.25-12.84-5.5-24.09-13.08-33.75-22.75-9.67-9.66-17.34-21-23-34-5.67-13-8.5-26.83-8.5-41.5s2.83-28.5,8.5-41.5c5.66-13,13.33-24.33,23-34s20.91-17.25,33.75-22.75c12.83-5.5,26.58-8.25,41.25-8.25H764.59v76.5H247.09c-8.34,0-15.42,2.92-21.25,8.75s-8.75,12.92-8.75,21.25,2.91,15.42,8.75,21.25c5.83,5.84,12.91,8.75,21.25,8.75h430.5c14.66,0,28.5,2.84,41.5,8.5,13,5.67,24.33,13.34,34,23,9.66,9.67,17.25,21,22.75,34s8.25,26.84,8.25,41.5-2.75,28.42-8.25,41.25c-5.5,12.84-13.09,24.09-22.75,33.75s-21,17.34-34,23c-13,5.67-26.84,8.5-41.5,8.5H140.59Z"/><path class="e" d="M1693.09,169.32V507.82h-74v-226l-280.5,120-280.5-120v226h-74V169.32l354.5,152,354.5-152Z"/><path class="e" d="M1999.08,507.82h-106l363.5-350.5,364,350.5h-106l-258-248.5-257.5,248.5Z"/><path class="e" d="M3326.08,507.82l-88-85h-341v85h-76.5v-161.5h519.5c7.66,0,14.91-1.5,21.75-4.52,6.83-3.02,12.75-7.03,17.75-12.05s9-10.97,12-17.83,4.5-14.15,4.5-21.85-1.5-14.98-4.5-21.84-7-12.8-12-17.83-10.92-9.04-17.75-12.05c-6.84-3.02-14.09-4.52-21.75-4.52h-519.5v-76.5h519.5c18.33,0,35.5,3.5,51.5,10.48s30,16.47,42,28.45,21.5,26.03,28.5,42.17,10.5,33.35,10.5,51.65-3.25,34.19-9.75,49.66-15.34,29.2-26.5,41.17c-11.17,11.98-24.34,21.63-39.5,28.95-15.17,7.32-31.42,11.48-48.75,12.48l88.5,85.5h-110.5Z"/><path class="e" d="M3672.58,233.82v-76.5h207v76.5h-207Zm283.5,274V157.32h360v76.5h-283.5V507.82h-76.5Z"/></g><g><path class="e" d="M4179.55,233.82v-76.5h207v76.5h-207Zm283.5,274V157.32h360v76.5h-283.5V507.82h-76.5Z"/><path class="e" d="M5023.05,233.82v-76.5h643.5v76.5h-643.5Zm0,137v-76.5h643.5v76.5h-643.5Zm0,137v-76.5h643.5v76.5h-643.5Z"/><path class="e" d="M5940.55,270.32v238h-74V157.82l556,238-.5-238h74l.5,350.5-556-238Z"/></g></g></g></svg>